<svg width="243" height="163" viewBox="0 0 243 163" fill="none" xmlns="http://www.w3.org/2000/svg">
<g clip-path="url(#clip0)">
<g filter="url(#filter0_d)">
<path fill-rule="evenodd" clip-rule="evenodd" d="M-0.000244141 3.8996C-0.000244141 1.74887 1.74326 0.00537109 3.89399 0.00537109L238.716 0.00537109C240.867 0.00537109 242.61 1.74888 242.61 3.8996V158.111C242.61 160.262 240.867 162.005 238.716 162.005H3.89398C1.74326 162.005 -0.000244141 160.262 -0.000244141 158.111L-0.000244141 3.8996Z" fill="white"/>
<path d="M3.89399 -0.18934C1.63573 -0.18934 -0.194956 1.64134 -0.194956 3.8996V158.111C-0.194956 160.369 1.63572 162.2 3.89398 162.2H238.716C240.974 162.2 242.805 160.369 242.805 158.111V3.8996C242.805 1.64134 240.974 -0.18934 238.716 -0.18934H3.89399Z" stroke="#E8ECEF" stroke-width="0.389423"/>
</g>
<g clip-path="url(#clip1)">
<path d="M27.2595 61.5344L230.928 61.145" stroke="#EAEBF0" stroke-width="0.389423" stroke-dasharray="1.17"/>
<path d="M27.2595 93.0774L230.928 92.688" stroke="#EAEBF0" stroke-width="0.389423" stroke-dasharray="1.17"/>
<path d="M27.2595 109.044L230.928 108.654" stroke="#EAEBF0" stroke-width="0.389423" stroke-dasharray="1.17"/>
<path d="M27.2595 77.5008L230.928 77.1113" stroke="#EAEBF0" stroke-width="0.389423" stroke-dasharray="1.17"/>
<path fill-rule="evenodd" clip-rule="evenodd" d="M27.2595 124.621H230.928V125.01H27.2595V124.621Z" fill="#EAEBF0"/>
<path d="M27.2595 45.5676L230.928 45.1782" stroke="#EAEBF0" stroke-width="0.389423" stroke-dasharray="1.17"/>
<path opacity="0.03" d="M33.2955 45.3729H42.6417V124.426H33.2955V45.3729Z" fill="#387DFF" stroke="#E8ECEF" stroke-width="0.389423"/>
<path opacity="0.03" d="M67.5648 45.3729H76.911V124.426H67.5648V45.3729Z" fill="#387DFF" stroke="#E8ECEF" stroke-width="0.389423"/>
<path opacity="0.03" d="M105.339 45.3729H114.685V124.426H105.339V45.3729Z" fill="#387DFF" stroke="#E8ECEF" stroke-width="0.389423"/>
<path opacity="0.03" d="M143.892 45.3729H153.238V124.426H143.892V45.3729Z" fill="#387DFF" stroke="#E8ECEF" stroke-width="0.389423"/>
<path opacity="0.03" d="M180.887 45.3729H190.233V124.426H180.887V45.3729Z" fill="#387DFF" stroke="#E8ECEF" stroke-width="0.389423"/>
<path opacity="0.03" d="M215.546 45.3729H224.892V124.426H215.546V45.3729Z" fill="#387DFF" stroke="#E8ECEF" stroke-width="0.389423"/>
<rect x="33.2955" y="50.0463" width="9.34615" height="74.3798" fill="#4EBBFE" stroke="#E8ECEF" stroke-width="0.389423"/>
<rect x="67.5648" y="66.0126" width="9.34615" height="58.4135" fill="#4EBBFE" stroke="#E8ECEF" stroke-width="0.389423"/>
<path opacity="0.5" fill-rule="evenodd" clip-rule="evenodd" d="M72.0431 40.1157H72.4325V125.01H72.0431V40.1157Z" fill="#EAEBF0"/>
<rect x="105.339" y="87.8202" width="9.34615" height="36.6058" fill="#4EBBFE" stroke="#E8ECEF" stroke-width="0.389423"/>
<rect x="143.892" y="97.556" width="9.34615" height="26.8702" fill="#4EBBFE" stroke="#E8ECEF" stroke-width="0.389423"/>
<rect x="180.887" y="106.123" width="9.34615" height="18.3029" fill="#4EBBFE" stroke="#E8ECEF" stroke-width="0.389423"/>
<rect x="215.546" y="115.08" width="9.34615" height="9.34615" fill="#4EBBFE" stroke="#E8ECEF" stroke-width="0.389423"/>
<path d="M147.265 133.048C147.067 133.048 146.901 133.012 146.766 132.939C146.631 132.864 146.522 132.764 146.439 132.639C146.359 132.515 146.299 132.376 146.26 132.223C146.224 132.067 146.205 131.908 146.205 131.748C146.205 131.446 146.247 131.183 146.33 130.957C146.413 130.729 146.533 130.551 146.688 130.423C146.847 130.294 147.037 130.229 147.261 130.229C147.432 130.229 147.579 130.263 147.701 130.33C147.823 130.398 147.919 130.488 147.989 130.603C148.062 130.714 148.107 130.839 148.125 130.976H147.822C147.793 130.828 147.729 130.714 147.631 130.634C147.532 130.553 147.407 130.513 147.257 130.513C147.052 130.513 146.879 130.61 146.739 130.805C146.601 130.997 146.527 131.298 146.517 131.709C146.579 131.587 146.678 131.481 146.813 131.393C146.951 131.302 147.115 131.257 147.307 131.257C147.463 131.257 147.609 131.293 147.744 131.366C147.881 131.439 147.993 131.541 148.079 131.674C148.164 131.803 148.207 131.957 148.207 132.133C148.207 132.286 148.169 132.433 148.094 132.573C148.019 132.713 147.91 132.828 147.767 132.916C147.627 133.004 147.459 133.048 147.265 133.048ZM147.241 132.76C147.363 132.76 147.472 132.734 147.568 132.682C147.664 132.63 147.74 132.559 147.794 132.468C147.849 132.374 147.876 132.268 147.876 132.149C147.876 131.964 147.815 131.818 147.693 131.709C147.574 131.597 147.423 131.541 147.241 131.541C147.119 131.541 147.01 131.57 146.914 131.627C146.818 131.681 146.742 131.755 146.684 131.849C146.63 131.942 146.603 132.043 146.603 132.153C146.603 132.269 146.63 132.374 146.684 132.468C146.742 132.559 146.818 132.63 146.914 132.682C147.01 132.734 147.119 132.76 147.241 132.76ZM148.678 132.008V131.732H150.22V132.008H148.678ZM151.001 133.001V130.642L150.561 130.739V130.513L151.11 130.276H151.332V133.001H151.001ZM152.835 133.048C152.648 133.048 152.486 133.014 152.348 132.947C152.21 132.879 152.1 132.787 152.017 132.67C151.936 132.551 151.887 132.416 151.869 132.265H152.188C152.219 132.416 152.292 132.538 152.406 132.632C152.521 132.722 152.665 132.768 152.839 132.768C152.968 132.768 153.08 132.738 153.173 132.678C153.267 132.616 153.338 132.533 153.388 132.429C153.44 132.325 153.466 132.21 153.466 132.082C153.466 131.88 153.408 131.716 153.294 131.592C153.18 131.467 153.032 131.405 152.85 131.405C152.7 131.405 152.571 131.439 152.465 131.506C152.358 131.574 152.28 131.662 152.231 131.771H151.92L152.153 130.276H153.582V130.56H152.406L152.247 131.389C152.309 131.314 152.395 131.252 152.504 131.202C152.615 131.153 152.743 131.128 152.885 131.128C153.064 131.128 153.22 131.17 153.353 131.253C153.488 131.336 153.593 131.449 153.668 131.592C153.743 131.735 153.781 131.897 153.781 132.079C153.781 132.252 153.743 132.413 153.668 132.561C153.595 132.709 153.488 132.828 153.345 132.916C153.205 133.004 153.035 133.048 152.835 133.048Z" fill="#6C7293"/>
<path d="M184.23 133.048C184.033 133.048 183.867 133.012 183.732 132.939C183.597 132.864 183.488 132.764 183.405 132.639C183.324 132.515 183.265 132.376 183.226 132.223C183.189 132.067 183.171 131.908 183.171 131.748C183.171 131.446 183.213 131.183 183.296 130.957C183.379 130.729 183.498 130.551 183.654 130.423C183.812 130.294 184.003 130.229 184.227 130.229C184.398 130.229 184.545 130.263 184.667 130.33C184.789 130.398 184.885 130.488 184.955 130.603C185.027 130.714 185.073 130.839 185.091 130.976H184.787C184.759 130.828 184.695 130.714 184.596 130.634C184.498 130.553 184.373 130.513 184.223 130.513C184.018 130.513 183.845 130.61 183.705 130.805C183.567 130.997 183.493 131.298 183.483 131.709C183.545 131.587 183.644 131.481 183.779 131.393C183.916 131.302 184.081 131.257 184.273 131.257C184.429 131.257 184.574 131.293 184.709 131.366C184.847 131.439 184.959 131.541 185.044 131.674C185.13 131.803 185.173 131.957 185.173 132.133C185.173 132.286 185.135 132.433 185.06 132.573C184.985 132.713 184.876 132.828 184.733 132.916C184.593 133.004 184.425 133.048 184.23 133.048ZM184.207 132.76C184.329 132.76 184.438 132.734 184.534 132.682C184.63 132.63 184.706 132.559 184.76 132.468C184.815 132.374 184.842 132.268 184.842 132.149C184.842 131.964 184.781 131.818 184.659 131.709C184.539 131.597 184.389 131.541 184.207 131.541C184.085 131.541 183.976 131.57 183.88 131.627C183.784 131.681 183.707 131.755 183.65 131.849C183.596 131.942 183.568 132.043 183.568 132.153C183.568 132.269 183.596 132.374 183.65 132.468C183.707 132.559 183.784 132.63 183.88 132.682C183.976 132.734 184.085 132.76 184.207 132.76ZM185.644 132.008V131.732H187.186V132.008H185.644ZM187.967 133.001V130.642L187.527 130.739V130.513L188.076 130.276H188.298V133.001H187.967ZM189.855 133.048C189.658 133.048 189.492 133.012 189.357 132.939C189.222 132.864 189.112 132.764 189.029 132.639C188.949 132.515 188.889 132.376 188.85 132.223C188.814 132.067 188.796 131.908 188.796 131.748C188.796 131.446 188.837 131.183 188.92 130.957C189.003 130.729 189.123 130.551 189.279 130.423C189.437 130.294 189.628 130.229 189.851 130.229C190.022 130.229 190.169 130.263 190.291 130.33C190.413 130.398 190.509 130.488 190.579 130.603C190.652 130.714 190.697 130.839 190.716 130.976H190.412C190.383 130.828 190.32 130.714 190.221 130.634C190.122 130.553 189.998 130.513 189.847 130.513C189.642 130.513 189.469 130.61 189.329 130.805C189.192 130.997 189.118 131.298 189.107 131.709C189.17 131.587 189.268 131.481 189.403 131.393C189.541 131.302 189.706 131.257 189.898 131.257C190.054 131.257 190.199 131.293 190.334 131.366C190.472 131.439 190.583 131.541 190.669 131.674C190.755 131.803 190.797 131.957 190.797 132.133C190.797 132.286 190.76 132.433 190.684 132.573C190.609 132.713 190.5 132.828 190.357 132.916C190.217 133.004 190.05 133.048 189.855 133.048ZM189.832 132.76C189.954 132.76 190.063 132.734 190.159 132.682C190.255 132.63 190.33 132.559 190.385 132.468C190.439 132.374 190.466 132.268 190.466 132.149C190.466 131.964 190.405 131.818 190.283 131.709C190.164 131.597 190.013 131.541 189.832 131.541C189.71 131.541 189.601 131.57 189.505 131.627C189.408 131.681 189.332 131.755 189.275 131.849C189.22 131.942 189.193 132.043 189.193 132.153C189.193 132.269 189.22 132.374 189.275 132.468C189.332 132.559 189.408 132.63 189.505 132.682C189.601 132.734 189.71 132.76 189.832 132.76Z" fill="#6C7293"/>
<path d="M217.832 132.951C217.635 132.951 217.469 132.915 217.334 132.842C217.199 132.767 217.09 132.667 217.007 132.542C216.926 132.418 216.867 132.279 216.828 132.125C216.791 131.97 216.773 131.811 216.773 131.65C216.773 131.349 216.815 131.086 216.898 130.86C216.981 130.631 217.1 130.454 217.256 130.326C217.414 130.197 217.605 130.132 217.828 130.132C218 130.132 218.146 130.165 218.268 130.233C218.39 130.3 218.487 130.391 218.557 130.505C218.629 130.617 218.675 130.742 218.693 130.879H218.389C218.361 130.731 218.297 130.617 218.198 130.537C218.1 130.456 217.975 130.416 217.825 130.416C217.619 130.416 217.447 130.513 217.307 130.708C217.169 130.9 217.095 131.201 217.085 131.611C217.147 131.489 217.246 131.384 217.381 131.296C217.518 131.205 217.683 131.16 217.875 131.16C218.031 131.16 218.176 131.196 218.311 131.269C218.449 131.341 218.561 131.444 218.646 131.576C218.732 131.706 218.775 131.859 218.775 132.036C218.775 132.189 218.737 132.336 218.662 132.476C218.586 132.616 218.477 132.73 218.335 132.819C218.194 132.907 218.027 132.951 217.832 132.951ZM217.809 132.663C217.931 132.663 218.04 132.637 218.136 132.585C218.232 132.533 218.307 132.462 218.362 132.371C218.416 132.277 218.444 132.171 218.444 132.051C218.444 131.867 218.383 131.72 218.261 131.611C218.141 131.5 217.991 131.444 217.809 131.444C217.687 131.444 217.578 131.473 217.482 131.53C217.386 131.584 217.309 131.658 217.252 131.752C217.198 131.845 217.17 131.946 217.17 132.055C217.17 132.172 217.198 132.277 217.252 132.371C217.309 132.462 217.386 132.533 217.482 132.585C217.578 132.637 217.687 132.663 217.809 132.663ZM219.245 131.911V131.635H220.788V131.911H219.245ZM221.569 132.904V130.544L221.129 130.642V130.416L221.678 130.178H221.9V132.904H221.569ZM222.701 132.904L223.784 130.459H222.289V130.178H224.119V130.424L223.048 132.904H222.701Z" fill="#6C7293"/>
<path d="M70.7779 133.048C70.5806 133.048 70.4145 133.012 70.2795 132.939C70.1445 132.864 70.0354 132.764 69.9524 132.639C69.8719 132.515 69.8122 132.376 69.7732 132.223C69.7369 132.067 69.7187 131.908 69.7187 131.748C69.7187 131.446 69.7603 131.183 69.8433 130.957C69.9264 130.729 70.0458 130.551 70.2016 130.423C70.36 130.294 70.5508 130.229 70.7741 130.229C70.9454 130.229 71.0921 130.263 71.2141 130.33C71.3361 130.398 71.4322 130.488 71.5023 130.603C71.575 130.714 71.6204 130.839 71.6386 130.976H71.3348C71.3063 130.828 71.2427 130.714 71.144 130.634C71.0454 130.553 70.9207 130.513 70.7702 130.513C70.5651 130.513 70.3924 130.61 70.2522 130.805C70.1146 130.997 70.0406 131.298 70.0303 131.709C70.0926 131.587 70.1912 131.481 70.3262 131.393C70.4638 131.302 70.6287 131.257 70.8208 131.257C70.9766 131.257 71.1219 131.293 71.2569 131.366C71.3945 131.439 71.5062 131.541 71.5918 131.674C71.6775 131.803 71.7204 131.957 71.7204 132.133C71.7204 132.286 71.6827 132.433 71.6074 132.573C71.5321 132.713 71.4231 132.828 71.2803 132.916C71.1401 133.004 70.9727 133.048 70.7779 133.048ZM70.7546 132.76C70.8766 132.76 70.9856 132.734 71.0817 132.682C71.1778 132.63 71.253 132.559 71.3076 132.468C71.3621 132.374 71.3893 132.268 71.3893 132.149C71.3893 131.964 71.3283 131.818 71.2063 131.709C71.0869 131.597 70.9363 131.541 70.7546 131.541C70.6326 131.541 70.5235 131.57 70.4275 131.627C70.3314 131.681 70.2548 131.755 70.1977 131.849C70.1432 131.942 70.1159 132.043 70.1159 132.153C70.1159 132.269 70.1432 132.374 70.1977 132.468C70.2548 132.559 70.3314 132.63 70.4275 132.682C70.5235 132.734 70.6326 132.76 70.7546 132.76ZM72.1911 132.008V131.732H73.7332V132.008H72.1911ZM74.5148 133.001V130.642L74.0747 130.739V130.513L74.6238 130.276H74.8458V133.001H74.5148ZM76.6556 133.001V132.417H75.2732V132.164L76.5972 130.276H76.9789V132.129H77.3839V132.417H76.9789V133.001H76.6556ZM75.6354 132.129H76.6712V130.638L75.6354 132.129Z" fill="#6C7293"/>
<path d="M36.8122 133.048C36.6149 133.048 36.4487 133.012 36.3137 132.939C36.1787 132.864 36.0697 132.764 35.9866 132.639C35.9061 132.515 35.8464 132.376 35.8075 132.223C35.7711 132.067 35.7529 131.908 35.7529 131.748C35.7529 131.446 35.7945 131.183 35.8776 130.957C35.9606 130.729 36.0801 130.551 36.2358 130.423C36.3942 130.294 36.585 130.229 36.8083 130.229C36.9796 130.229 37.1263 130.263 37.2483 130.33C37.3703 130.398 37.4664 130.488 37.5365 130.603C37.6092 130.714 37.6546 130.839 37.6728 130.976H37.369C37.3405 130.828 37.2769 130.714 37.1782 130.634C37.0796 130.553 36.955 130.513 36.8044 130.513C36.5993 130.513 36.4266 130.61 36.2865 130.805C36.1489 130.997 36.0749 131.298 36.0645 131.709C36.1268 131.587 36.2254 131.481 36.3604 131.393C36.498 131.302 36.6629 131.257 36.855 131.257C37.0108 131.257 37.1562 131.293 37.2912 131.366C37.4288 131.439 37.5404 131.541 37.6261 131.674C37.7117 131.803 37.7546 131.957 37.7546 132.133C37.7546 132.286 37.7169 132.433 37.6416 132.573C37.5664 132.713 37.4573 132.828 37.3145 132.916C37.1743 133.004 37.0069 133.048 36.8122 133.048ZM36.7888 132.76C36.9108 132.76 37.0199 132.734 37.1159 132.682C37.212 132.63 37.2873 132.559 37.3418 132.468C37.3963 132.374 37.4236 132.268 37.4236 132.149C37.4236 131.964 37.3626 131.818 37.2405 131.709C37.1211 131.597 36.9705 131.541 36.7888 131.541C36.6668 131.541 36.5578 131.57 36.4617 131.627C36.3656 131.681 36.289 131.755 36.2319 131.849C36.1774 131.942 36.1502 132.043 36.1502 132.153C36.1502 132.269 36.1774 132.374 36.2319 132.468C36.289 132.559 36.3656 132.63 36.4617 132.682C36.5578 132.734 36.6668 132.76 36.7888 132.76ZM38.2253 132.008V131.732H39.7674V132.008H38.2253ZM40.549 133.001V130.642L40.1089 130.739V130.513L40.658 130.276H40.88V133.001H40.549ZM42.3043 133.048C42.1304 133.048 41.9733 133.017 41.8331 132.955C41.693 132.89 41.58 132.794 41.4943 132.667C41.4113 132.539 41.3671 132.381 41.3619 132.191H41.693C41.6955 132.347 41.7501 132.482 41.8565 132.596C41.963 132.708 42.1122 132.764 42.3043 132.764C42.4965 132.764 42.6405 132.711 42.7366 132.604C42.8353 132.498 42.8846 132.369 42.8846 132.219C42.8846 132.092 42.8534 131.988 42.7911 131.907C42.7314 131.827 42.6496 131.767 42.5458 131.728C42.4445 131.689 42.3329 131.67 42.2109 131.67H42.0084V131.393H42.2109C42.3874 131.393 42.525 131.353 42.6237 131.272C42.7249 131.192 42.7755 131.079 42.7755 130.934C42.7755 130.812 42.7353 130.712 42.6548 130.634C42.5769 130.553 42.4601 130.513 42.3043 130.513C42.1538 130.513 42.033 130.558 41.9422 130.649C41.8513 130.738 41.8007 130.849 41.7903 130.984H41.4593C41.4671 130.836 41.506 130.705 41.5761 130.591C41.6488 130.477 41.7475 130.388 41.8721 130.326C41.9967 130.261 42.1408 130.229 42.3043 130.229C42.4809 130.229 42.6276 130.26 42.7444 130.322C42.8638 130.385 42.9534 130.468 43.0131 130.571C43.0754 130.675 43.1066 130.79 43.1066 130.914C43.1066 131.052 43.0689 131.178 42.9936 131.292C42.9183 131.404 42.8054 131.479 42.6548 131.518C42.8158 131.552 42.9495 131.628 43.0559 131.748C43.1624 131.867 43.2156 132.024 43.2156 132.219C43.2156 132.369 43.1805 132.508 43.1105 132.635C43.043 132.76 42.9417 132.86 42.8067 132.935C42.6717 133.011 42.5043 133.048 42.3043 133.048Z" fill="#6C7293"/>
<path d="M108.265 133.048C108.067 133.048 107.901 133.012 107.766 132.939C107.631 132.864 107.522 132.764 107.439 132.639C107.359 132.515 107.299 132.376 107.26 132.223C107.224 132.067 107.205 131.908 107.205 131.748C107.205 131.446 107.247 131.183 107.33 130.957C107.413 130.729 107.533 130.551 107.688 130.423C107.847 130.294 108.037 130.229 108.261 130.229C108.432 130.229 108.579 130.263 108.701 130.33C108.823 130.398 108.919 130.488 108.989 130.603C109.062 130.714 109.107 130.839 109.125 130.976H108.822C108.793 130.828 108.729 130.714 108.631 130.634C108.532 130.553 108.407 130.513 108.257 130.513C108.052 130.513 107.879 130.61 107.739 130.805C107.601 130.997 107.527 131.298 107.517 131.709C107.579 131.587 107.678 131.481 107.813 131.393C107.951 131.302 108.115 131.257 108.307 131.257C108.463 131.257 108.609 131.293 108.744 131.366C108.881 131.439 108.993 131.541 109.079 131.674C109.164 131.803 109.207 131.957 109.207 132.133C109.207 132.286 109.169 132.433 109.094 132.573C109.019 132.713 108.91 132.828 108.767 132.916C108.627 133.004 108.459 133.048 108.265 133.048ZM108.241 132.76C108.363 132.76 108.472 132.734 108.568 132.682C108.664 132.63 108.74 132.559 108.794 132.468C108.849 132.374 108.876 132.268 108.876 132.149C108.876 131.964 108.815 131.818 108.693 131.709C108.574 131.597 108.423 131.541 108.241 131.541C108.119 131.541 108.01 131.57 107.914 131.627C107.818 131.681 107.742 131.755 107.684 131.849C107.63 131.942 107.603 132.043 107.603 132.153C107.603 132.269 107.63 132.374 107.684 132.468C107.742 132.559 107.818 132.63 107.914 132.682C108.01 132.734 108.119 132.76 108.241 132.76ZM109.678 132.008V131.732H111.22V132.008H109.678ZM112.001 133.001V130.642L111.561 130.739V130.513L112.11 130.276H112.332V133.001H112.001ZM113.835 133.048C113.648 133.048 113.486 133.014 113.348 132.947C113.21 132.879 113.1 132.787 113.017 132.67C112.936 132.551 112.887 132.416 112.869 132.265H113.188C113.219 132.416 113.292 132.538 113.406 132.632C113.521 132.722 113.665 132.768 113.839 132.768C113.968 132.768 114.08 132.738 114.173 132.678C114.267 132.616 114.338 132.533 114.388 132.429C114.44 132.325 114.466 132.21 114.466 132.082C114.466 131.88 114.408 131.716 114.294 131.592C114.18 131.467 114.032 131.405 113.85 131.405C113.7 131.405 113.571 131.439 113.465 131.506C113.358 131.574 113.28 131.662 113.231 131.771H112.92L113.153 130.276H114.582V130.56H113.406L113.247 131.389C113.309 131.314 113.395 131.252 113.504 131.202C113.615 131.153 113.743 131.128 113.885 131.128C114.064 131.128 114.22 131.17 114.353 131.253C114.488 131.336 114.593 131.449 114.668 131.592C114.743 131.735 114.781 131.897 114.781 132.079C114.781 132.252 114.743 132.413 114.668 132.561C114.595 132.709 114.488 132.828 114.345 132.916C114.205 133.004 114.035 133.048 113.835 133.048Z" fill="#6C7293"/>
<path d="M13.5191 92.6255V89.7936L12.991 89.9104V89.6394L13.6499 89.3543H13.9163V92.6255H13.5191ZM15.8825 92.6816C15.5928 92.6816 15.342 92.6115 15.1302 92.4713C14.9214 92.328 14.761 92.1301 14.6488 91.8778C14.5367 91.6223 14.4806 91.3264 14.4806 90.9899C14.4806 90.6534 14.5367 90.359 14.6488 90.1067C14.761 89.8512 14.9214 89.6534 15.1302 89.5132C15.342 89.3699 15.5928 89.2983 15.8825 89.2983C16.1723 89.2983 16.4215 89.3699 16.6302 89.5132C16.8389 89.6534 16.9994 89.8512 17.1115 90.1067C17.2237 90.359 17.2798 90.6534 17.2798 90.9899C17.2798 91.3264 17.2237 91.6223 17.1115 91.8778C16.9994 92.1301 16.8389 92.328 16.6302 92.4713C16.4215 92.6115 16.1723 92.6816 15.8825 92.6816ZM15.8825 92.3358C16.0726 92.3358 16.2424 92.2828 16.3919 92.1769C16.5445 92.0678 16.6629 91.9136 16.747 91.7142C16.8343 91.5117 16.8779 91.2703 16.8779 90.9899C16.8779 90.7095 16.8343 90.4696 16.747 90.2703C16.6629 90.0709 16.5445 89.9182 16.3919 89.8123C16.2424 89.7033 16.0726 89.6487 15.8825 89.6487C15.6894 89.6487 15.518 89.7033 15.3685 89.8123C15.2189 89.9182 15.1006 90.0709 15.0133 90.2703C14.9261 90.4696 14.8825 90.7095 14.8825 90.9899C14.8825 91.2703 14.9261 91.5117 15.0133 91.7142C15.1006 91.9136 15.2189 92.0678 15.3685 92.1769C15.518 92.2828 15.6894 92.3358 15.8825 92.3358ZM18.4357 90.8731C18.2955 90.8731 18.1678 90.8419 18.0525 90.7796C17.9404 90.7142 17.8516 90.6239 17.7861 90.5086C17.7207 90.3902 17.688 90.25 17.688 90.088C17.688 89.926 17.7207 89.7874 17.7861 89.6721C17.8547 89.5537 17.945 89.4634 18.0572 89.4011C18.1725 89.3356 18.3002 89.3029 18.4404 89.3029C18.5806 89.3029 18.7067 89.3356 18.8189 89.4011C18.9311 89.4634 19.0198 89.5537 19.0853 89.6721C19.1507 89.7874 19.1834 89.926 19.1834 90.088C19.1834 90.25 19.1491 90.3902 19.0806 90.5086C19.0152 90.6239 18.9264 90.7142 18.8142 90.7796C18.7021 90.8419 18.5759 90.8731 18.4357 90.8731ZM18.146 92.6255L20.0479 89.3543H20.4405L18.5385 92.6255H18.146ZM18.4357 90.5693C18.5447 90.5693 18.6398 90.5288 18.7208 90.4478C18.8049 90.3668 18.8469 90.2469 18.8469 90.088C18.8469 89.926 18.8064 89.8045 18.7254 89.7235C18.6444 89.6394 18.5494 89.5973 18.4404 89.5973C18.3313 89.5973 18.2332 89.6394 18.146 89.7235C18.0619 89.8045 18.0198 89.926 18.0198 90.088C18.0198 90.2469 18.0619 90.3668 18.146 90.4478C18.2301 90.5288 18.3267 90.5693 18.4357 90.5693ZM20.1834 92.6816C20.0432 92.6816 19.9155 92.6504 19.8002 92.5881C19.6881 92.5227 19.5993 92.4323 19.5339 92.3171C19.4685 92.1987 19.4357 92.0585 19.4357 91.8965C19.4357 91.7345 19.4685 91.5959 19.5339 91.4806C19.6024 91.3622 19.6928 91.2719 19.8049 91.2095C19.9171 91.1441 20.0432 91.1114 20.1834 91.1114C20.3236 91.1114 20.4498 91.1441 20.562 91.2095C20.6741 91.2719 20.7629 91.3622 20.8283 91.4806C20.8937 91.5959 20.9265 91.7345 20.9265 91.8965C20.9265 92.0585 20.8937 92.1987 20.8283 92.3171C20.7629 92.4323 20.6741 92.5227 20.562 92.5881C20.4498 92.6504 20.3236 92.6816 20.1834 92.6816ZM20.1788 92.3778C20.2909 92.3778 20.3875 92.3373 20.4685 92.2563C20.5526 92.1753 20.5947 92.0554 20.5947 91.8965C20.5947 91.7345 20.5542 91.613 20.4732 91.532C20.3922 91.451 20.2956 91.4105 20.1834 91.4105C20.0744 91.4105 19.9778 91.451 19.8937 91.532C19.8096 91.613 19.7675 91.7345 19.7675 91.8965C19.7675 92.0554 19.808 92.1753 19.889 92.2563C19.9731 92.3373 20.0697 92.3778 20.1788 92.3778Z" fill="#595E64"/>
<path d="M13.5191 77.0488V74.2169L12.991 74.3338V74.0627L13.6499 73.7777H13.9163V77.0488H13.5191ZM15.719 77.1049C15.4947 77.1049 15.2999 77.0644 15.1348 76.9834C14.9697 76.9024 14.8373 76.7918 14.7376 76.6516C14.641 76.5083 14.5819 76.3463 14.56 76.1656H14.9432C14.9806 76.3463 15.0679 76.4927 15.2049 76.6049C15.342 76.7139 15.5149 76.7684 15.7236 76.7684C15.8794 76.7684 16.0134 76.7326 16.1255 76.661C16.2377 76.5862 16.3234 76.4865 16.3825 76.3619C16.4449 76.2373 16.476 76.0986 16.476 75.946C16.476 75.703 16.4075 75.5067 16.2704 75.3572C16.1333 75.2076 15.9557 75.1329 15.7377 75.1329C15.557 75.1329 15.4028 75.1734 15.275 75.2544C15.1473 75.3354 15.0538 75.4413 14.9946 75.5721H14.6208L14.9012 73.7777H16.6162V74.1188H15.2049L15.0133 75.1142C15.0881 75.0238 15.1909 74.9491 15.3218 74.8899C15.4557 74.8307 15.6084 74.8011 15.7797 74.8011C15.9947 74.8011 16.1816 74.8509 16.3405 74.9506C16.5025 75.0503 16.6287 75.1858 16.719 75.3572C16.8094 75.5285 16.8545 75.7232 16.8545 75.9413C16.8545 76.15 16.8094 76.3432 16.719 76.5208C16.6318 76.6983 16.5025 76.8401 16.3311 76.946C16.1629 77.0519 15.9589 77.1049 15.719 77.1049ZM18.0569 75.2964C17.9167 75.2964 17.789 75.2653 17.6737 75.203C17.5616 75.1375 17.4728 75.0472 17.4074 74.9319C17.3419 74.8135 17.3092 74.6733 17.3092 74.5113C17.3092 74.3493 17.3419 74.2107 17.4074 74.0954C17.4759 73.9771 17.5663 73.8867 17.6784 73.8244C17.7937 73.759 17.9214 73.7263 18.0616 73.7263C18.2018 73.7263 18.328 73.759 18.4401 73.8244C18.5523 73.8867 18.6411 73.9771 18.7065 74.0954C18.7719 74.2107 18.8046 74.3493 18.8046 74.5113C18.8046 74.6733 18.7704 74.8135 18.7018 74.9319C18.6364 75.0472 18.5476 75.1375 18.4354 75.203C18.3233 75.2653 18.1971 75.2964 18.0569 75.2964ZM17.7672 77.0488L19.6691 73.7777H20.0617L18.1597 77.0488H17.7672ZM18.0569 74.9927C18.166 74.9927 18.261 74.9522 18.342 74.8712C18.4261 74.7902 18.4682 74.6702 18.4682 74.5113C18.4682 74.3493 18.4277 74.2278 18.3467 74.1468C18.2657 74.0627 18.1706 74.0207 18.0616 74.0207C17.9526 74.0207 17.8544 74.0627 17.7672 74.1468C17.6831 74.2278 17.641 74.3493 17.641 74.5113C17.641 74.6702 17.6831 74.7902 17.7672 74.8712C17.8513 74.9522 17.9479 74.9927 18.0569 74.9927ZM19.8047 77.1049C19.6645 77.1049 19.5367 77.0738 19.4215 77.0114C19.3093 76.946 19.2205 76.8557 19.1551 76.7404C19.0897 76.622 19.057 76.4818 19.057 76.3198C19.057 76.1578 19.0897 76.0192 19.1551 75.9039C19.2236 75.7855 19.314 75.6952 19.4261 75.6329C19.5383 75.5675 19.6645 75.5348 19.8047 75.5348C19.9449 75.5348 20.071 75.5675 20.1832 75.6329C20.2953 75.6952 20.3841 75.7855 20.4495 75.9039C20.515 76.0192 20.5477 76.1578 20.5477 76.3198C20.5477 76.4818 20.515 76.622 20.4495 76.7404C20.3841 76.8557 20.2953 76.946 20.1832 77.0114C20.071 77.0738 19.9449 77.1049 19.8047 77.1049ZM19.8 76.8012C19.9121 76.8012 20.0087 76.7607 20.0897 76.6797C20.1738 76.5987 20.2159 76.4787 20.2159 76.3198C20.2159 76.1578 20.1754 76.0363 20.0944 75.9553C20.0134 75.8743 19.9168 75.8338 19.8047 75.8338C19.6956 75.8338 19.599 75.8743 19.5149 75.9553C19.4308 76.0363 19.3888 76.1578 19.3888 76.3198C19.3888 76.4787 19.4293 76.5987 19.5103 76.6797C19.5944 76.7607 19.6909 76.8012 19.8 76.8012Z" fill="#595E64"/>
<path d="M12.294 61.0015V60.7258C12.5152 60.5513 12.724 60.3753 12.9202 60.1977C13.1196 60.017 13.2956 59.8394 13.4483 59.665C13.6041 59.4905 13.7256 59.3192 13.8128 59.1509C13.9031 58.9827 13.9483 58.8207 13.9483 58.6649C13.9483 58.5497 13.9281 58.4422 13.8876 58.3425C13.8502 58.2428 13.7879 58.1633 13.7006 58.1042C13.6134 58.0418 13.495 58.0107 13.3455 58.0107C13.2022 58.0107 13.0822 58.0434 12.9857 58.1088C12.8891 58.1711 12.8159 58.2553 12.766 58.3612C12.7193 58.4671 12.6959 58.5808 12.6959 58.7023H12.3174C12.3174 58.4873 12.3626 58.3035 12.4529 58.1509C12.5433 57.9951 12.6663 57.8767 12.8221 57.7957C12.9779 57.7147 13.1539 57.6742 13.3502 57.6742C13.6399 57.6742 13.8767 57.7568 14.0605 57.9219C14.2474 58.0839 14.3408 58.3269 14.3408 58.6509C14.3408 58.8441 14.2926 59.0357 14.196 59.2257C14.0994 59.4126 13.9763 59.5949 13.8268 59.7724C13.6773 59.9469 13.5168 60.1105 13.3455 60.2631C13.1772 60.4158 13.0199 60.5528 12.8735 60.6743H14.453V61.0015H12.294ZM16.2498 61.0575C15.9601 61.0575 15.7093 60.9874 15.4974 60.8473C15.2887 60.7039 15.1283 60.5061 15.0161 60.2538C14.904 59.9983 14.8479 59.7023 14.8479 59.3659C14.8479 59.0294 14.904 58.735 15.0161 58.4827C15.1283 58.2272 15.2887 58.0294 15.4974 57.8892C15.7093 57.7459 15.9601 57.6742 16.2498 57.6742C16.5395 57.6742 16.7888 57.7459 16.9975 57.8892C17.2062 58.0294 17.3667 58.2272 17.4788 58.4827C17.591 58.735 17.647 59.0294 17.647 59.3659C17.647 59.7023 17.591 59.9983 17.4788 60.2538C17.3667 60.5061 17.2062 60.7039 16.9975 60.8473C16.7888 60.9874 16.5395 61.0575 16.2498 61.0575ZM16.2498 60.7117C16.4398 60.7117 16.6096 60.6588 16.7592 60.5528C16.9118 60.4438 17.0302 60.2896 17.1143 60.0902C17.2015 59.8877 17.2452 59.6463 17.2452 59.3659C17.2452 59.0855 17.2015 58.8456 17.1143 58.6462C17.0302 58.4468 16.9118 58.2942 16.7592 58.1883C16.6096 58.0792 16.4398 58.0247 16.2498 58.0247C16.0566 58.0247 15.8853 58.0792 15.7358 58.1883C15.5862 58.2942 15.4678 58.4468 15.3806 58.6462C15.2934 58.8456 15.2498 59.0855 15.2498 59.3659C15.2498 59.6463 15.2934 59.8877 15.3806 60.0902C15.4678 60.2896 15.5862 60.4438 15.7358 60.5528C15.8853 60.6588 16.0566 60.7117 16.2498 60.7117ZM18.803 59.2491C18.6628 59.2491 18.5351 59.2179 18.4198 59.1556C18.3076 59.0902 18.2188 58.9998 18.1534 58.8846C18.088 58.7662 18.0553 58.626 18.0553 58.464C18.0553 58.302 18.088 58.1633 18.1534 58.0481C18.222 57.9297 18.3123 57.8393 18.4245 57.777C18.5397 57.7116 18.6675 57.6789 18.8076 57.6789C18.9478 57.6789 19.074 57.7116 19.1862 57.777C19.2983 57.8393 19.3871 57.9297 19.4525 58.0481C19.518 58.1633 19.5507 58.302 19.5507 58.464C19.5507 58.626 19.5164 58.7662 19.4479 58.8846C19.3824 58.9998 19.2936 59.0902 19.1815 59.1556C19.0693 59.2179 18.9432 59.2491 18.803 59.2491ZM18.5132 61.0015L20.4152 57.7303H20.8077L18.9058 61.0015H18.5132ZM18.803 58.9453C18.912 58.9453 19.007 58.9048 19.088 58.8238C19.1721 58.7428 19.2142 58.6229 19.2142 58.464C19.2142 58.302 19.1737 58.1805 19.0927 58.0995C19.0117 58.0154 18.9167 57.9733 18.8076 57.9733C18.6986 57.9733 18.6005 58.0154 18.5132 58.0995C18.4291 58.1805 18.3871 58.302 18.3871 58.464C18.3871 58.6229 18.4291 58.7428 18.5132 58.8238C18.5974 58.9048 18.6939 58.9453 18.803 58.9453ZM20.5507 61.0575C20.4105 61.0575 20.2828 61.0264 20.1675 60.9641C20.0554 60.8987 19.9666 60.8083 19.9011 60.693C19.8357 60.5747 19.803 60.4345 19.803 60.2725C19.803 60.1105 19.8357 59.9718 19.9011 59.8566C19.9697 59.7382 20.06 59.6478 20.1722 59.5855C20.2843 59.5201 20.4105 59.4874 20.5507 59.4874C20.6909 59.4874 20.8171 59.5201 20.9292 59.5855C21.0414 59.6478 21.1302 59.7382 21.1956 59.8566C21.261 59.9718 21.2937 60.1105 21.2937 60.2725C21.2937 60.4345 21.261 60.5747 21.1956 60.693C21.1302 60.8083 21.0414 60.8987 20.9292 60.9641C20.8171 61.0264 20.6909 61.0575 20.5507 61.0575ZM20.546 60.7538C20.6582 60.7538 20.7548 60.7133 20.8358 60.6323C20.9199 60.5513 20.9619 60.4313 20.9619 60.2725C20.9619 60.1105 20.9214 59.989 20.8404 59.908C20.7594 59.827 20.6629 59.7865 20.5507 59.7865C20.4417 59.7865 20.3451 59.827 20.261 59.908C20.1769 59.989 20.1348 60.1105 20.1348 60.2725C20.1348 60.4313 20.1753 60.5513 20.2563 60.6323C20.3404 60.7133 20.437 60.7538 20.546 60.7538Z" fill="#595E64"/>
<path d="M12.3663 45.1157V44.84C12.5875 44.6655 12.7962 44.4895 12.9925 44.312C13.1919 44.1313 13.3679 43.9537 13.5206 43.7792C13.6763 43.6048 13.7978 43.4334 13.8851 43.2652C13.9754 43.097 14.0206 42.935 14.0206 42.7792C14.0206 42.6639 14.0003 42.5564 13.9598 42.4567C13.9224 42.357 13.8601 42.2776 13.7729 42.2184C13.6857 42.1561 13.5673 42.125 13.4177 42.125C13.2744 42.125 13.1545 42.1577 13.0579 42.2231C12.9613 42.2854 12.8881 42.3695 12.8383 42.4754C12.7916 42.5814 12.7682 42.6951 12.7682 42.8166H12.3897C12.3897 42.6016 12.4348 42.4178 12.5252 42.2651C12.6155 42.1094 12.7386 41.991 12.8944 41.91C13.0501 41.829 13.2261 41.7885 13.4224 41.7885C13.7121 41.7885 13.9489 41.871 14.1327 42.0362C14.3196 42.1982 14.4131 42.4412 14.4131 42.7652C14.4131 42.9583 14.3648 43.1499 14.2682 43.34C14.1717 43.5269 14.0486 43.7091 13.8991 43.8867C13.7495 44.0612 13.5891 44.2247 13.4177 44.3774C13.2495 44.53 13.0922 44.6671 12.9458 44.7886H14.5253V45.1157H12.3663ZM16.2041 45.1718C15.9798 45.1718 15.7851 45.1313 15.62 45.0503C15.4549 44.9693 15.3225 44.8587 15.2228 44.7185C15.1262 44.5752 15.067 44.4132 15.0452 44.2325H15.4284C15.4658 44.4132 15.553 44.5596 15.6901 44.6718C15.8272 44.7808 16.0001 44.8353 16.2088 44.8353C16.3646 44.8353 16.4985 44.7995 16.6107 44.7279C16.7229 44.6531 16.8085 44.5534 16.8677 44.4288C16.93 44.3042 16.9612 44.1655 16.9612 44.0129C16.9612 43.7699 16.8926 43.5736 16.7556 43.4241C16.6185 43.2745 16.4409 43.1998 16.2228 43.1998C16.0421 43.1998 15.8879 43.2403 15.7602 43.3213C15.6325 43.4023 15.539 43.5082 15.4798 43.639H15.106L15.3864 41.8446H17.1014V42.1857H15.6901L15.4985 43.1811C15.5733 43.0907 15.6761 43.016 15.8069 42.9568C15.9409 42.8976 16.0935 42.868 16.2649 42.868C16.4799 42.868 16.6668 42.9178 16.8257 43.0175C16.9877 43.1172 17.1138 43.2527 17.2042 43.4241C17.2945 43.5954 17.3397 43.7901 17.3397 44.0082C17.3397 44.2169 17.2945 44.4101 17.2042 44.5877C17.1169 44.7652 16.9877 44.907 16.8163 45.0129C16.6481 45.1188 16.444 45.1718 16.2041 45.1718ZM18.5421 43.3633C18.4019 43.3633 18.2742 43.3322 18.1589 43.2699C18.0468 43.2044 17.958 43.1141 17.8925 42.9988C17.8271 42.8804 17.7944 42.7402 17.7944 42.5782C17.7944 42.4162 17.8271 42.2776 17.8925 42.1623C17.9611 42.044 18.0514 41.9536 18.1636 41.8913C18.2789 41.8259 18.4066 41.7932 18.5468 41.7932C18.687 41.7932 18.8131 41.8259 18.9253 41.8913C19.0374 41.9536 19.1262 42.044 19.1917 42.1623C19.2571 42.2776 19.2898 42.4162 19.2898 42.5782C19.2898 42.7402 19.2555 42.8804 19.187 42.9988C19.1216 43.1141 19.0328 43.2044 18.9206 43.2699C18.8085 43.3322 18.6823 43.3633 18.5421 43.3633ZM18.2524 45.1157L20.1543 41.8446H20.5469L18.6449 45.1157H18.2524ZM18.5421 43.0596C18.6511 43.0596 18.7462 43.0191 18.8272 42.9381C18.9113 42.8571 18.9533 42.7371 18.9533 42.5782C18.9533 42.4162 18.9128 42.2947 18.8318 42.2137C18.7508 42.1296 18.6558 42.0876 18.5468 42.0876C18.4377 42.0876 18.3396 42.1296 18.2524 42.2137C18.1683 42.2947 18.1262 42.4162 18.1262 42.5782C18.1262 42.7371 18.1683 42.8571 18.2524 42.9381C18.3365 43.0191 18.4331 43.0596 18.5421 43.0596ZM20.2898 45.1718C20.1496 45.1718 20.0219 45.1406 19.9066 45.0783C19.7945 45.0129 19.7057 44.9226 19.6403 44.8073C19.5749 44.6889 19.5421 44.5487 19.5421 44.3867C19.5421 44.2247 19.5749 44.0861 19.6403 43.9708C19.7088 43.8524 19.7992 43.7621 19.9113 43.6998C20.0235 43.6344 20.1496 43.6016 20.2898 43.6016C20.43 43.6016 20.5562 43.6344 20.6684 43.6998C20.7805 43.7621 20.8693 43.8524 20.9347 43.9708C21.0001 44.0861 21.0329 44.2247 21.0329 44.3867C21.0329 44.5487 21.0001 44.6889 20.9347 44.8073C20.8693 44.9226 20.7805 45.0129 20.6684 45.0783C20.5562 45.1406 20.43 45.1718 20.2898 45.1718ZM20.2852 44.868C20.3973 44.868 20.4939 44.8275 20.5749 44.7465C20.659 44.6655 20.7011 44.5456 20.7011 44.3867C20.7011 44.2247 20.6606 44.1032 20.5796 44.0222C20.4986 43.9412 20.402 43.9007 20.2898 43.9007C20.1808 43.9007 20.0842 43.9412 20.0001 44.0222C19.916 44.1032 19.8739 44.2247 19.8739 44.3867C19.8739 44.5456 19.9144 44.6655 19.9954 44.7465C20.0795 44.8275 20.1761 44.868 20.2852 44.868Z" fill="#595E64"/>
<path d="M16.256 108.648C16.0317 108.648 15.837 108.607 15.6718 108.526C15.5067 108.445 15.3743 108.335 15.2746 108.195C15.1781 108.051 15.1189 107.889 15.0971 107.709H15.4802C15.5176 107.889 15.6049 108.036 15.7419 108.148C15.879 108.257 16.0519 108.311 16.2606 108.311C16.4164 108.311 16.5504 108.276 16.6625 108.204C16.7747 108.129 16.8604 108.029 16.9196 107.905C16.9819 107.78 17.013 107.642 17.013 107.489C17.013 107.246 16.9445 107.05 16.8074 106.9C16.6703 106.751 16.4927 106.676 16.2747 106.676C16.094 106.676 15.9398 106.716 15.812 106.797C15.6843 106.878 15.5908 106.984 15.5316 107.115H15.1578L15.4382 105.321H17.1532V105.662H15.7419L15.5503 106.657C15.6251 106.567 15.7279 106.492 15.8588 106.433C15.9927 106.374 16.1454 106.344 16.3167 106.344C16.5317 106.344 16.7186 106.394 16.8775 106.494C17.0395 106.593 17.1657 106.729 17.256 106.9C17.3464 107.071 17.3915 107.266 17.3915 107.484C17.3915 107.693 17.3464 107.886 17.256 108.064C17.1688 108.241 17.0395 108.383 16.8681 108.489C16.6999 108.595 16.4959 108.648 16.256 108.648ZM18.5939 106.839C18.4537 106.839 18.326 106.808 18.2107 106.746C18.0986 106.681 18.0098 106.59 17.9444 106.475C17.879 106.357 17.8462 106.216 17.8462 106.054C17.8462 105.892 17.879 105.754 17.9444 105.638C18.0129 105.52 18.1033 105.43 18.2154 105.367C18.3307 105.302 18.4584 105.269 18.5986 105.269C18.7388 105.269 18.865 105.302 18.9771 105.367C19.0893 105.43 19.1781 105.52 19.2435 105.638C19.3089 105.754 19.3416 105.892 19.3416 106.054C19.3416 106.216 19.3074 106.357 19.2388 106.475C19.1734 106.59 19.0846 106.681 18.9725 106.746C18.8603 106.808 18.7341 106.839 18.5939 106.839ZM18.3042 108.592L20.2061 105.321H20.5987L18.6967 108.592H18.3042ZM18.5939 106.536C18.703 106.536 18.798 106.495 18.879 106.414C18.9631 106.333 19.0052 106.213 19.0052 106.054C19.0052 105.892 18.9647 105.771 18.8837 105.69C18.8027 105.606 18.7076 105.564 18.5986 105.564C18.4896 105.564 18.3914 105.606 18.3042 105.69C18.2201 105.771 18.178 105.892 18.178 106.054C18.178 106.213 18.2201 106.333 18.3042 106.414C18.3883 106.495 18.4849 106.536 18.5939 106.536ZM20.3417 108.648C20.2015 108.648 20.0737 108.617 19.9585 108.554C19.8463 108.489 19.7575 108.399 19.6921 108.283C19.6267 108.165 19.594 108.025 19.594 107.863C19.594 107.701 19.6267 107.562 19.6921 107.447C19.7606 107.329 19.851 107.238 19.9631 107.176C20.0753 107.11 20.2015 107.078 20.3417 107.078C20.4819 107.078 20.608 107.11 20.7202 107.176C20.8323 107.238 20.9211 107.329 20.9866 107.447C21.052 107.562 21.0847 107.701 21.0847 107.863C21.0847 108.025 21.052 108.165 20.9866 108.283C20.9211 108.399 20.8323 108.489 20.7202 108.554C20.608 108.617 20.4819 108.648 20.3417 108.648ZM20.337 108.344C20.4491 108.344 20.5457 108.304 20.6267 108.223C20.7108 108.142 20.7529 108.022 20.7529 107.863C20.7529 107.701 20.7124 107.579 20.6314 107.498C20.5504 107.417 20.4538 107.377 20.3417 107.377C20.2326 107.377 20.1361 107.417 20.0519 107.498C19.9678 107.579 19.9258 107.701 19.9258 107.863C19.9258 108.022 19.9663 108.142 20.0473 108.223C20.1314 108.304 20.228 108.344 20.337 108.344Z" fill="#595E64"/>
<path d="M16.6212 125.058C16.3315 125.058 16.0807 124.987 15.8688 124.847C15.6601 124.704 15.4997 124.506 15.3875 124.254C15.2753 123.998 15.2193 123.702 15.2193 123.366C15.2193 123.029 15.2753 122.735 15.3875 122.483C15.4997 122.227 15.6601 122.029 15.8688 121.889C16.0807 121.746 16.3315 121.674 16.6212 121.674C16.9109 121.674 17.1602 121.746 17.3689 121.889C17.5776 122.029 17.7381 122.227 17.8502 122.483C17.9624 122.735 18.0184 123.029 18.0184 123.366C18.0184 123.702 17.9624 123.998 17.8502 124.254C17.7381 124.506 17.5776 124.704 17.3689 124.847C17.1602 124.987 16.9109 125.058 16.6212 125.058ZM16.6212 124.712C16.8112 124.712 16.981 124.659 17.1306 124.553C17.2832 124.444 17.4016 124.29 17.4857 124.09C17.5729 123.888 17.6166 123.646 17.6166 123.366C17.6166 123.086 17.5729 122.846 17.4857 122.646C17.4016 122.447 17.2832 122.294 17.1306 122.188C16.981 122.079 16.8112 122.025 16.6212 122.025C16.428 122.025 16.2567 122.079 16.1072 122.188C15.9576 122.294 15.8392 122.447 15.752 122.646C15.6648 122.846 15.6212 123.086 15.6212 123.366C15.6212 123.646 15.6648 123.888 15.752 124.09C15.8392 124.29 15.9576 124.444 16.1072 124.553C16.2567 124.659 16.428 124.712 16.6212 124.712ZM19.1744 123.249C19.0342 123.249 18.9064 123.218 18.7912 123.156C18.679 123.09 18.5902 123 18.5248 122.885C18.4594 122.766 18.4267 122.626 18.4267 122.464C18.4267 122.302 18.4594 122.163 18.5248 122.048C18.5934 121.93 18.6837 121.839 18.7959 121.777C18.9111 121.712 19.0389 121.679 19.179 121.679C19.3192 121.679 19.4454 121.712 19.5576 121.777C19.6697 121.839 19.7585 121.93 19.8239 122.048C19.8894 122.163 19.9221 122.302 19.9221 122.464C19.9221 122.626 19.8878 122.766 19.8193 122.885C19.7538 123 19.665 123.09 19.5529 123.156C19.4407 123.218 19.3146 123.249 19.1744 123.249ZM18.8846 125.001L20.7866 121.73H21.1791L19.2772 125.001H18.8846ZM19.1744 122.945C19.2834 122.945 19.3784 122.905 19.4594 122.824C19.5435 122.743 19.5856 122.623 19.5856 122.464C19.5856 122.302 19.5451 122.18 19.4641 122.099C19.3831 122.015 19.2881 121.973 19.179 121.973C19.07 121.973 18.9719 122.015 18.8846 122.099C18.8005 122.18 18.7585 122.302 18.7585 122.464C18.7585 122.623 18.8005 122.743 18.8846 122.824C18.9688 122.905 19.0653 122.945 19.1744 122.945ZM20.9221 125.058C20.7819 125.058 20.6542 125.026 20.5389 124.964C20.4268 124.899 20.338 124.808 20.2725 124.693C20.2071 124.575 20.1744 124.434 20.1744 124.272C20.1744 124.11 20.2071 123.972 20.2725 123.857C20.3411 123.738 20.4314 123.648 20.5436 123.586C20.6557 123.52 20.7819 123.487 20.9221 123.487C21.0623 123.487 21.1885 123.52 21.3006 123.586C21.4128 123.648 21.5016 123.738 21.567 123.857C21.6324 123.972 21.6651 124.11 21.6651 124.272C21.6651 124.434 21.6324 124.575 21.567 124.693C21.5016 124.808 21.4128 124.899 21.3006 124.964C21.1885 125.026 21.0623 125.058 20.9221 125.058ZM20.9174 124.754C21.0296 124.754 21.1262 124.713 21.2072 124.632C21.2913 124.551 21.3333 124.431 21.3333 124.272C21.3333 124.11 21.2928 123.989 21.2118 123.908C21.1308 123.827 21.0343 123.786 20.9221 123.786C20.8131 123.786 20.7165 123.827 20.6324 123.908C20.5483 123.989 20.5062 124.11 20.5062 124.272C20.5062 124.431 20.5467 124.551 20.6277 124.632C20.7118 124.713 20.8084 124.754 20.9174 124.754Z" fill="#595E64"/>
<g clip-path="url(#clip2)">
<g filter="url(#filter1_d)">
<mask id="path-34-outside-1" maskUnits="userSpaceOnUse" x="79.131" y="56.0054" width="40" height="20" fill="black">
<rect fill="white" x="79.131" y="56.0054" width="40" height="20"/>
<path fill-rule="evenodd" clip-rule="evenodd" d="M85.4609 57.0054C83.3101 57.0054 81.5666 58.7489 81.5666 60.8996V64.2407L80.2292 65.7468C80.0982 65.8943 80.0982 66.1165 80.2292 66.264L81.5666 67.7701V71.1111C81.5666 73.2619 83.3101 75.0054 85.4609 75.0054H114.105C116.256 75.0054 118 73.2619 118 71.1111V60.8996C118 58.7489 116.256 57.0054 114.105 57.0054H85.4609Z"/>
</mask>
<path fill-rule="evenodd" clip-rule="evenodd" d="M85.4609 57.0054C83.3101 57.0054 81.5666 58.7489 81.5666 60.8996V64.2407L80.2292 65.7468C80.0982 65.8943 80.0982 66.1165 80.2292 66.264L81.5666 67.7701V71.1111C81.5666 73.2619 83.3101 75.0054 85.4609 75.0054H114.105C116.256 75.0054 118 73.2619 118 71.1111V60.8996C118 58.7489 116.256 57.0054 114.105 57.0054H85.4609Z" fill="white" fill-opacity="0.5"/>
<path d="M81.5666 64.2407L81.8578 64.4993L81.956 64.3886V64.2407H81.5666ZM80.2292 65.7468L79.938 65.4883L79.938 65.4883L80.2292 65.7468ZM80.2292 66.264L80.5204 66.0054H80.5204L80.2292 66.264ZM81.5666 67.7701H81.956V67.6222L81.8578 67.5115L81.5666 67.7701ZM81.956 60.8996C81.956 58.964 83.5252 57.3948 85.4609 57.3948V56.6159C83.0951 56.6159 81.1772 58.5338 81.1772 60.8996H81.956ZM81.956 64.2407V60.8996H81.1772V64.2407H81.956ZM80.5204 66.0054L81.8578 64.4993L81.2754 63.9821L79.938 65.4883L80.5204 66.0054ZM80.5204 66.0054L80.5204 66.0054L79.938 65.4883C79.6761 65.7833 79.6761 66.2275 79.938 66.5225L80.5204 66.0054ZM81.8578 67.5115L80.5204 66.0054L79.938 66.5225L81.2754 68.0287L81.8578 67.5115ZM81.956 71.1111V67.7701H81.1772V71.1111H81.956ZM85.4609 74.6159C83.5252 74.6159 81.956 73.0468 81.956 71.1111H81.1772C81.1772 73.4769 83.0951 75.3948 85.4609 75.3948V74.6159ZM114.105 74.6159H85.4609V75.3948H114.105V74.6159ZM117.61 71.1111C117.61 73.0468 116.041 74.6159 114.105 74.6159V75.3948C116.471 75.3948 118.389 73.4769 118.389 71.1111H117.61ZM117.61 60.8996V71.1111H118.389V60.8996H117.61ZM114.105 57.3948C116.041 57.3948 117.61 58.964 117.61 60.8996H118.389C118.389 58.5338 116.471 56.6159 114.105 56.6159V57.3948ZM85.4609 57.3948H114.105V56.6159H85.4609V57.3948Z" fill="#387DFF" fill-opacity="0.5" mask="url(#path-34-outside-1)"/>
</g>
<path d="M88.8268 68.0015V67.3005H87.1679V66.9968L88.7567 64.7303H89.2147V66.9547H89.7007V67.3005H89.2147V68.0015H88.8268ZM87.6025 66.9547H88.8455V65.1649L87.6025 66.9547ZM90.1234 68.0015V67.7258C90.3446 67.5513 90.5534 67.3753 90.7496 67.1977C90.949 67.017 91.125 66.8394 91.2777 66.665C91.4335 66.4905 91.555 66.3192 91.6422 66.1509C91.7325 65.9827 91.7777 65.8207 91.7777 65.6649C91.7777 65.5497 91.7575 65.4422 91.717 65.3425C91.6796 65.2428 91.6173 65.1633 91.53 65.1042C91.4428 65.0418 91.3244 65.0107 91.1749 65.0107C91.0316 65.0107 90.9116 65.0434 90.8151 65.1088C90.7185 65.1711 90.6453 65.2553 90.5954 65.3612C90.5487 65.4671 90.5253 65.5808 90.5253 65.7023H90.1468C90.1468 65.4873 90.192 65.3035 90.2823 65.1509C90.3727 64.9951 90.4957 64.8767 90.6515 64.7957C90.8073 64.7147 90.9833 64.6742 91.1796 64.6742C91.4693 64.6742 91.7061 64.7568 91.8899 64.9219C92.0768 65.0839 92.1702 65.3269 92.1702 65.6509C92.1702 65.8441 92.122 66.0357 92.0254 66.2257C91.9288 66.4126 91.8057 66.5949 91.6562 66.7724C91.5067 66.9469 91.3462 67.1105 91.1749 67.2631C91.0067 67.4158 90.8493 67.5528 90.7029 67.6743H92.2824V68.0015H90.1234ZM94.0792 68.0575C93.7895 68.0575 93.5387 67.9874 93.3268 67.8473C93.1181 67.7039 92.9577 67.5061 92.8455 67.2538C92.7334 66.9983 92.6773 66.7023 92.6773 66.3659C92.6773 66.0294 92.7334 65.735 92.8455 65.4827C92.9577 65.2272 93.1181 65.0294 93.3268 64.8892C93.5387 64.7459 93.7895 64.6742 94.0792 64.6742C94.3689 64.6742 94.6182 64.7459 94.8269 64.8892C95.0356 65.0294 95.1961 65.2272 95.3082 65.4827C95.4204 65.735 95.4764 66.0294 95.4764 66.3659C95.4764 66.7023 95.4204 66.9983 95.3082 67.2538C95.1961 67.5061 95.0356 67.7039 94.8269 67.8473C94.6182 67.9874 94.3689 68.0575 94.0792 68.0575ZM94.0792 67.7117C94.2692 67.7117 94.439 67.6588 94.5886 67.5528C94.7412 67.4438 94.8596 67.2896 94.9437 67.0902C95.0309 66.8877 95.0746 66.6463 95.0746 66.3659C95.0746 66.0855 95.0309 65.8456 94.9437 65.6462C94.8596 65.4468 94.7412 65.2942 94.5886 65.1883C94.439 65.0792 94.2692 65.0247 94.0792 65.0247C93.886 65.0247 93.7147 65.0792 93.5652 65.1883C93.4156 65.2942 93.2972 65.4468 93.21 65.6462C93.1228 65.8456 93.0792 66.0855 93.0792 66.3659C93.0792 66.6463 93.1228 66.8877 93.21 67.0902C93.2972 67.2896 93.4156 67.4438 93.5652 67.5528C93.7147 67.6588 93.886 67.7117 94.0792 67.7117ZM97.2569 69.0295V65.6836H97.6121L97.6495 66.0668C97.7242 65.9547 97.8302 65.8534 97.9672 65.7631C98.1074 65.6727 98.285 65.6275 98.5 65.6275C98.7305 65.6275 98.9314 65.6805 99.1028 65.7864C99.2741 65.8923 99.4065 66.0372 99.5 66.221C99.5966 66.4048 99.6449 66.6136 99.6449 66.8472C99.6449 67.0809 99.5966 67.2896 99.5 67.4734C99.4065 67.6541 99.2726 67.7974 99.0981 67.9033C98.9268 68.0061 98.7258 68.0575 98.4953 68.0575C98.3053 68.0575 98.1355 68.0186 97.9859 67.9407C97.8395 67.8628 97.7274 67.7538 97.6495 67.6136V69.0295H97.2569ZM98.4532 67.7164C98.609 67.7164 98.7461 67.6806 98.8645 67.6089C98.9829 67.5342 99.0763 67.4313 99.1449 67.3005C99.2134 67.1697 99.2477 67.017 99.2477 66.8425C99.2477 66.6681 99.2134 66.5154 99.1449 66.3846C99.0763 66.2537 98.9829 66.1525 98.8645 66.0808C98.7461 66.0061 98.609 65.9687 98.4532 65.9687C98.2975 65.9687 98.1604 66.0061 98.042 66.0808C97.9236 66.1525 97.8302 66.2537 97.7616 66.3846C97.6931 66.5154 97.6588 66.6681 97.6588 66.8425C97.6588 67.017 97.6931 67.1697 97.7616 67.3005C97.8302 67.4313 97.9236 67.5342 98.042 67.6089C98.1604 67.6806 98.2975 67.7164 98.4532 67.7164ZM101.233 68.0575C101.012 68.0575 100.816 68.0077 100.645 67.908C100.473 67.8052 100.338 67.6634 100.238 67.4828C100.141 67.3021 100.093 67.0887 100.093 66.8425C100.093 66.5995 100.141 66.3877 100.238 66.207C100.335 66.0232 100.469 65.8814 100.64 65.7818C100.814 65.6789 101.015 65.6275 101.243 65.6275C101.467 65.6275 101.66 65.6789 101.822 65.7818C101.987 65.8814 102.113 66.0138 102.201 66.179C102.288 66.3441 102.332 66.5217 102.332 66.7117C102.332 66.746 102.33 66.7802 102.327 66.8145C102.327 66.8488 102.327 66.8877 102.327 66.9313H100.481C100.49 67.1089 100.531 67.2569 100.603 67.3753C100.677 67.4905 100.769 67.5778 100.878 67.637C100.99 67.6962 101.109 67.7258 101.233 67.7258C101.395 67.7258 101.531 67.6884 101.64 67.6136C101.749 67.5388 101.828 67.4376 101.878 67.3098H102.266C102.204 67.5248 102.084 67.7039 101.906 67.8473C101.732 67.9874 101.508 68.0575 101.233 68.0575ZM101.233 65.9593C101.046 65.9593 100.88 66.017 100.733 66.1322C100.59 66.2444 100.508 66.4095 100.486 66.6276H101.944C101.934 66.4188 101.863 66.2553 101.729 66.1369C101.595 66.0185 101.43 65.9593 101.233 65.9593ZM103.908 68.0575C103.69 68.0575 103.494 68.0077 103.319 67.908C103.145 67.8083 103.006 67.6681 102.903 67.4874C102.804 67.3036 102.754 67.0887 102.754 66.8425C102.754 66.5964 102.805 66.383 102.908 66.2023C103.011 66.0185 103.149 65.8768 103.324 65.7771C103.501 65.6774 103.699 65.6275 103.917 65.6275C104.135 65.6275 104.332 65.6774 104.506 65.7771C104.681 65.8768 104.818 66.0185 104.917 66.2023C105.02 66.383 105.072 66.5964 105.072 66.8425C105.072 67.0887 105.02 67.3036 104.917 67.4874C104.815 67.6681 104.674 67.8083 104.497 67.908C104.322 68.0077 104.126 68.0575 103.908 68.0575ZM103.908 67.7211C104.042 67.7211 104.167 67.6884 104.282 67.6229C104.397 67.5575 104.491 67.4594 104.562 67.3285C104.634 67.1977 104.67 67.0357 104.67 66.8425C104.67 66.6494 104.634 66.4874 104.562 66.3565C104.494 66.2257 104.402 66.1276 104.286 66.0621C104.171 65.9967 104.048 65.964 103.917 65.964C103.783 65.964 103.659 65.9967 103.543 66.0621C103.428 66.1276 103.335 66.2257 103.263 66.3565C103.191 66.4874 103.156 66.6494 103.156 66.8425C103.156 67.0357 103.191 67.1977 103.263 67.3285C103.335 67.4594 103.427 67.5575 103.539 67.6229C103.654 67.6884 103.777 67.7211 103.908 67.7211ZM105.617 69.0295V65.6836H105.973L106.01 66.0668C106.085 65.9547 106.191 65.8534 106.328 65.7631C106.468 65.6727 106.645 65.6275 106.86 65.6275C107.091 65.6275 107.292 65.6805 107.463 65.7864C107.635 65.8923 107.767 66.0372 107.86 66.221C107.957 66.4048 108.005 66.6136 108.005 66.8472C108.005 67.0809 107.957 67.2896 107.86 67.4734C107.767 67.6541 107.633 67.7974 107.459 67.9033C107.287 68.0061 107.086 68.0575 106.856 68.0575C106.666 68.0575 106.496 68.0186 106.346 67.9407C106.2 67.8628 106.088 67.7538 106.01 67.6136V69.0295H105.617ZM106.814 67.7164C106.969 67.7164 107.107 67.6806 107.225 67.6089C107.343 67.5342 107.437 67.4313 107.505 67.3005C107.574 67.1697 107.608 67.017 107.608 66.8425C107.608 66.6681 107.574 66.5154 107.505 66.3846C107.437 66.2537 107.343 66.1525 107.225 66.0808C107.107 66.0061 106.969 65.9687 106.814 65.9687C106.658 65.9687 106.521 66.0061 106.402 66.0808C106.284 66.1525 106.191 66.2537 106.122 66.3846C106.054 66.5154 106.019 66.6681 106.019 66.8425C106.019 67.017 106.054 67.1697 106.122 67.3005C106.191 67.4313 106.284 67.5342 106.402 67.6089C106.521 67.6806 106.658 67.7164 106.814 67.7164ZM108.552 68.0015V64.6368H108.944V68.0015H108.552ZM110.63 68.0575C110.409 68.0575 110.212 68.0077 110.041 67.908C109.87 67.8052 109.734 67.6634 109.634 67.4828C109.538 67.3021 109.49 67.0887 109.49 66.8425C109.49 66.5995 109.538 66.3877 109.634 66.207C109.731 66.0232 109.865 65.8814 110.036 65.7818C110.211 65.6789 110.412 65.6275 110.639 65.6275C110.863 65.6275 111.057 65.6789 111.219 65.7818C111.384 65.8814 111.51 66.0138 111.597 66.179C111.684 66.3441 111.728 66.5217 111.728 66.7117C111.728 66.746 111.726 66.7802 111.723 66.8145C111.723 66.8488 111.723 66.8877 111.723 66.9313H109.877C109.887 67.1089 109.927 67.2569 109.999 67.3753C110.074 67.4905 110.166 67.5778 110.275 67.637C110.387 67.6962 110.505 67.7258 110.63 67.7258C110.792 67.7258 110.927 67.6884 111.036 67.6136C111.145 67.5388 111.225 67.4376 111.275 67.3098H111.662C111.6 67.5248 111.48 67.7039 111.303 67.8473C111.128 67.9874 110.904 68.0575 110.63 68.0575ZM110.63 65.9593C110.443 65.9593 110.276 66.017 110.13 66.1322C109.986 66.2444 109.904 66.4095 109.882 66.6276H111.34C111.331 66.4188 111.259 66.2553 111.125 66.1369C110.991 66.0185 110.826 65.9593 110.63 65.9593Z" fill="#3B3E43"/>
</g>
</g>
<g clip-path="url(#clip3)">
<path fill-rule="evenodd" clip-rule="evenodd" d="M108.649 145.649H116.437V149.544H108.649V145.649Z" fill="#387DFF"/>
<path d="M120.346 149.001V145.73H121.35C121.927 145.73 122.35 145.877 122.621 146.17C122.896 146.462 123.033 146.864 123.033 147.375C123.033 147.877 122.896 148.274 122.621 148.567C122.35 148.857 121.927 149.001 121.35 149.001H120.346ZM120.738 148.674H121.341C121.659 148.674 121.911 148.623 122.098 148.52C122.288 148.414 122.424 148.265 122.505 148.072C122.586 147.875 122.626 147.643 122.626 147.375C122.626 147.101 122.586 146.866 122.505 146.67C122.424 146.473 122.288 146.322 122.098 146.216C121.911 146.11 121.659 146.057 121.341 146.057H120.738V148.674ZM124.347 149.058C124.154 149.058 123.994 149.025 123.866 148.959C123.738 148.894 123.643 148.807 123.581 148.698C123.518 148.589 123.487 148.47 123.487 148.343C123.487 148.106 123.578 147.924 123.758 147.796C123.939 147.668 124.185 147.604 124.497 147.604H125.123V147.576C125.123 147.374 125.07 147.221 124.964 147.118C124.858 147.012 124.716 146.959 124.539 146.959C124.386 146.959 124.254 146.998 124.142 147.076C124.033 147.151 123.964 147.262 123.936 147.408H123.534C123.55 147.24 123.606 147.098 123.702 146.983C123.802 146.867 123.925 146.78 124.071 146.721C124.218 146.659 124.374 146.628 124.539 146.628C124.863 146.628 125.106 146.715 125.268 146.889C125.433 147.061 125.515 147.29 125.515 147.576V149.001H125.165L125.142 148.586C125.076 148.716 124.98 148.829 124.852 148.922C124.727 149.012 124.559 149.058 124.347 149.058ZM124.408 148.726C124.557 148.726 124.685 148.687 124.791 148.609C124.9 148.531 124.983 148.43 125.039 148.305C125.095 148.181 125.123 148.05 125.123 147.913V147.908H124.529C124.299 147.908 124.135 147.948 124.039 148.029C123.945 148.107 123.899 148.205 123.899 148.324C123.899 148.445 123.942 148.544 124.029 148.618C124.12 148.69 124.246 148.726 124.408 148.726ZM126.956 149.001C126.745 149.001 126.578 148.95 126.456 148.847C126.335 148.744 126.274 148.559 126.274 148.291V147.015H125.872V146.684H126.274L126.326 146.128H126.667V146.684H127.349V147.015H126.667V148.291C126.667 148.438 126.696 148.537 126.755 148.59C126.815 148.64 126.919 148.665 127.069 148.665H127.312V149.001H126.956ZM128.619 149.058C128.426 149.058 128.265 149.025 128.137 148.959C128.01 148.894 127.915 148.807 127.852 148.698C127.79 148.589 127.759 148.47 127.759 148.343C127.759 148.106 127.849 147.924 128.03 147.796C128.211 147.668 128.457 147.604 128.768 147.604H129.394V147.576C129.394 147.374 129.341 147.221 129.236 147.118C129.13 147.012 128.988 146.959 128.81 146.959C128.658 146.959 128.525 146.998 128.413 147.076C128.304 147.151 128.235 147.262 128.207 147.408H127.806C127.821 147.24 127.877 147.098 127.974 146.983C128.073 146.867 128.197 146.78 128.343 146.721C128.489 146.659 128.645 146.628 128.81 146.628C129.134 146.628 129.377 146.715 129.539 146.889C129.704 147.061 129.787 147.29 129.787 147.576V149.001H129.436L129.413 148.586C129.348 148.716 129.251 148.829 129.123 148.922C128.999 149.012 128.831 149.058 128.619 149.058ZM128.679 148.726C128.829 148.726 128.957 148.687 129.063 148.609C129.172 148.531 129.254 148.43 129.31 148.305C129.366 148.181 129.394 148.05 129.394 147.913V147.908H128.801C128.57 147.908 128.407 147.948 128.31 148.029C128.217 148.107 128.17 148.205 128.17 148.324C128.17 148.445 128.214 148.544 128.301 148.618C128.391 148.69 128.517 148.726 128.679 148.726ZM131.958 149.001V146.17L131.43 146.286V146.015L132.089 145.73H132.356V149.001H131.958Z" fill="#3B3E43"/>
</g>
<path d="M12.2942 28.0054V27.7297C12.5154 27.5552 12.7241 27.3792 12.9204 27.2016C13.1197 27.0209 13.2958 26.8433 13.4484 26.6689C13.6042 26.4944 13.7257 26.3231 13.8129 26.1548C13.9033 25.9866 13.9484 25.8246 13.9484 25.6688C13.9484 25.5536 13.9282 25.4461 13.8877 25.3464C13.8503 25.2467 13.788 25.1673 13.7008 25.1081C13.6135 25.0458 13.4951 25.0146 13.3456 25.0146C13.2023 25.0146 13.0824 25.0473 12.9858 25.1127C12.8892 25.175 12.816 25.2592 12.7661 25.3651C12.7194 25.471 12.696 25.5847 12.696 25.7062H12.3175C12.3175 25.4913 12.3627 25.3074 12.453 25.1548C12.5434 24.999 12.6664 24.8806 12.8222 24.7996C12.978 24.7186 13.154 24.6781 13.3503 24.6781C13.64 24.6781 13.8768 24.7607 14.0606 24.9258C14.2475 25.0878 14.341 25.3308 14.341 25.6548C14.341 25.848 14.2927 26.0396 14.1961 26.2296C14.0995 26.4165 13.9765 26.5988 13.8269 26.7764C13.6774 26.9508 13.5169 27.1144 13.3456 27.267C13.1774 27.4197 13.02 27.5568 12.8736 27.6783H14.4531V28.0054H12.2942ZM16.2499 28.0614C15.9602 28.0614 15.7094 27.9914 15.4976 27.8512C15.2888 27.7079 15.1284 27.51 15.0162 27.2577C14.9041 27.0022 14.848 26.7063 14.848 26.3698C14.848 26.0333 14.9041 25.7389 15.0162 25.4866C15.1284 25.2311 15.2888 25.0333 15.4976 24.8931C15.7094 24.7498 15.9602 24.6781 16.2499 24.6781C16.5396 24.6781 16.7889 24.7498 16.9976 24.8931C17.2063 25.0333 17.3668 25.2311 17.4789 25.4866C17.5911 25.7389 17.6472 26.0333 17.6472 26.3698C17.6472 26.7063 17.5911 27.0022 17.4789 27.2577C17.3668 27.51 17.2063 27.7079 16.9976 27.8512C16.7889 27.9914 16.5396 28.0614 16.2499 28.0614ZM16.2499 27.7156C16.44 27.7156 16.6097 27.6627 16.7593 27.5568C16.9119 27.4477 17.0303 27.2935 17.1144 27.0941C17.2017 26.8916 17.2453 26.6502 17.2453 26.3698C17.2453 26.0894 17.2017 25.8495 17.1144 25.6501C17.0303 25.4508 16.9119 25.2981 16.7593 25.1922C16.6097 25.0831 16.44 25.0286 16.2499 25.0286C16.0568 25.0286 15.8854 25.0831 15.7359 25.1922C15.5863 25.2981 15.468 25.4508 15.3807 25.6501C15.2935 25.8495 15.2499 26.0894 15.2499 26.3698C15.2499 26.6502 15.2935 26.8916 15.3807 27.0941C15.468 27.2935 15.5863 27.4477 15.7359 27.5568C15.8854 27.6627 16.0568 27.7156 16.2499 27.7156ZM18.1173 28.0054V27.7297C18.3384 27.5552 18.5472 27.3792 18.7434 27.2016C18.9428 27.0209 19.1188 26.8433 19.2715 26.6689C19.4273 26.4944 19.5488 26.3231 19.636 26.1548C19.7263 25.9866 19.7715 25.8246 19.7715 25.6688C19.7715 25.5536 19.7513 25.4461 19.7108 25.3464C19.6734 25.2467 19.6111 25.1673 19.5238 25.1081C19.4366 25.0458 19.3182 25.0146 19.1687 25.0146C19.0254 25.0146 18.9054 25.0473 18.8089 25.1127C18.7123 25.175 18.6391 25.2592 18.5892 25.3651C18.5425 25.471 18.5191 25.5847 18.5191 25.7062H18.1406C18.1406 25.4913 18.1858 25.3074 18.2761 25.1548C18.3665 24.999 18.4895 24.8806 18.6453 24.7996C18.8011 24.7186 18.9771 24.6781 19.1734 24.6781C19.4631 24.6781 19.6999 24.7607 19.8837 24.9258C20.0706 25.0878 20.1641 25.3308 20.1641 25.6548C20.1641 25.848 20.1158 26.0396 20.0192 26.2296C19.9226 26.4165 19.7996 26.5988 19.65 26.7764C19.5005 26.9508 19.34 27.1144 19.1687 27.267C19.0005 27.4197 18.8431 27.5568 18.6967 27.6783H20.2762V28.0054H18.1173ZM21.1653 28.0054V25.1735L20.6373 25.2903V25.0193L21.2962 24.7342H21.5625V28.0054H21.1653ZM22.1829 26.8137V26.4819H24.0335V26.8137H22.1829ZM25.9246 28.0614C25.6349 28.0614 25.3841 27.9914 25.1723 27.8512C24.9636 27.7079 24.8031 27.51 24.691 27.2577C24.5788 27.0022 24.5227 26.7063 24.5227 26.3698C24.5227 26.0333 24.5788 25.7389 24.691 25.4866C24.8031 25.2311 24.9636 25.0333 25.1723 24.8931C25.3841 24.7498 25.6349 24.6781 25.9246 24.6781C26.2144 24.6781 26.4636 24.7498 26.6723 24.8931C26.8811 25.0333 27.0415 25.2311 27.1537 25.4866C27.2658 25.7389 27.3219 26.0333 27.3219 26.3698C27.3219 26.7063 27.2658 27.0022 27.1537 27.2577C27.0415 27.51 26.8811 27.7079 26.6723 27.8512C26.4636 27.9914 26.2144 28.0614 25.9246 28.0614ZM25.9246 27.7156C26.1147 27.7156 26.2845 27.6627 26.434 27.5568C26.5867 27.4477 26.7051 27.2935 26.7892 27.0941C26.8764 26.8916 26.92 26.6502 26.92 26.3698C26.92 26.0894 26.8764 25.8495 26.7892 25.6501C26.7051 25.4508 26.5867 25.2981 26.434 25.1922C26.2845 25.0831 26.1147 25.0286 25.9246 25.0286C25.7315 25.0286 25.5601 25.0831 25.4106 25.1922C25.2611 25.2981 25.1427 25.4508 25.0555 25.6501C24.9682 25.8495 24.9246 26.0894 24.9246 26.3698C24.9246 26.6502 24.9682 26.8916 25.0555 27.0941C25.1427 27.2935 25.2611 27.4477 25.4106 27.5568C25.5601 27.6627 25.7315 27.7156 25.9246 27.7156ZM28.2115 28.0054V25.1735L27.6834 25.2903V25.0193L28.3423 24.7342H28.6087V28.0054H28.2115ZM29.2291 26.8137V26.4819H31.0796V26.8137H29.2291ZM31.6436 28.0054V27.7297C31.8648 27.5552 32.0735 27.3792 32.2698 27.2016C32.4692 27.0209 32.6452 26.8433 32.7979 26.6689C32.9536 26.4944 33.0751 26.3231 33.1624 26.1548C33.2527 25.9866 33.2979 25.8246 33.2979 25.6688C33.2979 25.5536 33.2776 25.4461 33.2371 25.3464C33.1998 25.2467 33.1374 25.1673 33.0502 25.1081C32.963 25.0458 32.8446 25.0146 32.6951 25.0146C32.5518 25.0146 32.4318 25.0473 32.3352 25.1127C32.2387 25.175 32.1654 25.2592 32.1156 25.3651C32.0689 25.471 32.0455 25.5847 32.0455 25.7062H31.667C31.667 25.4913 31.7122 25.3074 31.8025 25.1548C31.8928 24.999 32.0159 24.8806 32.1717 24.7996C32.3274 24.7186 32.5035 24.6781 32.6997 24.6781C32.9895 24.6781 33.2262 24.7607 33.41 24.9258C33.597 25.0878 33.6904 25.3308 33.6904 25.6548C33.6904 25.848 33.6421 26.0396 33.5456 26.2296C33.449 26.4165 33.3259 26.5988 33.1764 26.7764C33.0268 26.9508 32.8664 27.1144 32.6951 27.267C32.5268 27.4197 32.3695 27.5568 32.2231 27.6783H33.8026V28.0054H31.6436ZM35.388 28.0614C35.1793 28.0614 34.9908 28.0241 34.8226 27.9493C34.6543 27.8714 34.5188 27.7561 34.416 27.6035C34.3163 27.4508 34.2633 27.2608 34.2571 27.0334H34.6543C34.6574 27.2203 34.7229 27.3823 34.8506 27.5194C34.9783 27.6533 35.1575 27.7203 35.388 27.7203C35.6185 27.7203 35.7914 27.6564 35.9067 27.5287C36.0251 27.401 36.0843 27.2468 36.0843 27.0661C36.0843 26.9134 36.0469 26.7888 35.9721 26.6922C35.9005 26.5957 35.8023 26.524 35.6777 26.4773C35.5562 26.4305 35.4223 26.4072 35.2758 26.4072H35.0328V26.0754H35.2758C35.4877 26.0754 35.6528 26.0271 35.7712 25.9305C35.8927 25.8339 35.9534 25.6984 35.9534 25.524C35.9534 25.3775 35.9051 25.2576 35.8086 25.1641C35.7151 25.0676 35.5749 25.0193 35.388 25.0193C35.2073 25.0193 35.0624 25.0738 34.9534 25.1828C34.8444 25.2888 34.7836 25.4227 34.7711 25.5847H34.3739C34.3833 25.4071 34.43 25.2498 34.5141 25.1127C34.6014 24.9757 34.7197 24.8697 34.8693 24.795C35.0188 24.7171 35.1917 24.6781 35.388 24.6781C35.5998 24.6781 35.7759 24.7155 35.9161 24.7903C36.0594 24.8651 36.1668 24.9648 36.2385 25.0894C36.3133 25.214 36.3506 25.3511 36.3506 25.5006C36.3506 25.6657 36.3055 25.8168 36.2151 25.9539C36.1248 26.0879 35.9893 26.1782 35.8086 26.2249C36.0017 26.2654 36.1622 26.3573 36.2899 26.5006C36.4176 26.6439 36.4815 26.8324 36.4815 27.0661C36.4815 27.2468 36.4394 27.4134 36.3553 27.5661C36.2743 27.7156 36.1528 27.8356 35.9908 27.9259C35.8288 28.0163 35.6279 28.0614 35.388 28.0614ZM39.5823 26.8418C39.4919 26.8418 39.4125 26.8262 39.3439 26.795C39.2754 26.7608 39.2115 26.7234 39.1523 26.6829C39.0931 26.6424 39.034 26.6066 38.9748 26.5754C38.9156 26.5443 38.8517 26.5287 38.7832 26.5287C38.6991 26.5287 38.629 26.5583 38.5729 26.6175C38.5199 26.6735 38.4872 26.7468 38.4747 26.8371H38.1803C38.2177 26.6128 38.2894 26.4477 38.3953 26.3418C38.5043 26.2327 38.6414 26.1782 38.8065 26.1782C38.8938 26.1782 38.9732 26.1938 39.0449 26.2249C39.1165 26.2561 39.1819 26.2919 39.2411 26.3324C39.3003 26.3729 39.3595 26.4087 39.4187 26.4399C39.4779 26.471 39.5402 26.4866 39.6056 26.4866C39.6897 26.4866 39.7583 26.4586 39.8112 26.4025C39.8673 26.3464 39.9016 26.2717 39.9141 26.1782H40.2085C40.1742 26.4025 40.1025 26.5692 39.9935 26.6782C39.8876 26.7873 39.7505 26.8418 39.5823 26.8418ZM41.9116 28.0054V27.7297C42.1328 27.5552 42.3415 27.3792 42.5378 27.2016C42.7372 27.0209 42.9132 26.8433 43.0659 26.6689C43.2216 26.4944 43.3431 26.3231 43.4304 26.1548C43.5207 25.9866 43.5659 25.8246 43.5659 25.6688C43.5659 25.5536 43.5456 25.4461 43.5051 25.3464C43.4677 25.2467 43.4054 25.1673 43.3182 25.1081C43.231 25.0458 43.1126 25.0146 42.9631 25.0146C42.8197 25.0146 42.6998 25.0473 42.6032 25.1127C42.5066 25.175 42.4334 25.2592 42.3836 25.3651C42.3369 25.471 42.3135 25.5847 42.3135 25.7062H41.935C41.935 25.4913 41.9801 25.3074 42.0705 25.1548C42.1608 24.999 42.2839 24.8806 42.4397 24.7996C42.5954 24.7186 42.7715 24.6781 42.9677 24.6781C43.2575 24.6781 43.4942 24.7607 43.678 24.9258C43.865 25.0878 43.9584 25.3308 43.9584 25.6548C43.9584 25.848 43.9101 26.0396 43.8136 26.2296C43.717 26.4165 43.5939 26.5988 43.4444 26.7764C43.2948 26.9508 43.1344 27.1144 42.9631 27.267C42.7948 27.4197 42.6375 27.5568 42.4911 27.6783H44.0706V28.0054H41.9116ZM45.8674 28.0614C45.5776 28.0614 45.3268 27.9914 45.115 27.8512C44.9063 27.7079 44.7458 27.51 44.6337 27.2577C44.5215 27.0022 44.4654 26.7063 44.4654 26.3698C44.4654 26.0333 44.5215 25.7389 44.6337 25.4866C44.7458 25.2311 44.9063 25.0333 45.115 24.8931C45.3268 24.7498 45.5776 24.6781 45.8674 24.6781C46.1571 24.6781 46.4063 24.7498 46.6151 24.8931C46.8238 25.0333 46.9842 25.2311 47.0964 25.4866C47.2085 25.7389 47.2646 26.0333 47.2646 26.3698C47.2646 26.7063 47.2085 27.0022 47.0964 27.2577C46.9842 27.51 46.8238 27.7079 46.6151 27.8512C46.4063 27.9914 46.1571 28.0614 45.8674 28.0614ZM45.8674 27.7156C46.0574 27.7156 46.2272 27.6627 46.3767 27.5568C46.5294 27.4477 46.6478 27.2935 46.7319 27.0941C46.8191 26.8916 46.8627 26.6502 46.8627 26.3698C46.8627 26.0894 46.8191 25.8495 46.7319 25.6501C46.6478 25.4508 46.5294 25.2981 46.3767 25.1922C46.2272 25.0831 46.0574 25.0286 45.8674 25.0286C45.6742 25.0286 45.5029 25.0831 45.3533 25.1922C45.2038 25.2981 45.0854 25.4508 44.9982 25.6501C44.9109 25.8495 44.8673 26.0894 44.8673 26.3698C44.8673 26.6502 44.9109 26.8916 44.9982 27.0941C45.0854 27.2935 45.2038 27.4477 45.3533 27.5568C45.5029 27.6627 45.6742 27.7156 45.8674 27.7156ZM47.7347 28.0054V27.7297C47.9559 27.5552 48.1646 27.3792 48.3609 27.2016C48.5603 27.0209 48.7363 26.8433 48.8889 26.6689C49.0447 26.4944 49.1662 26.3231 49.2534 26.1548C49.3438 25.9866 49.389 25.8246 49.389 25.6688C49.389 25.5536 49.3687 25.4461 49.3282 25.3464C49.2908 25.2467 49.2285 25.1673 49.1413 25.1081C49.0541 25.0458 48.9357 25.0146 48.7861 25.0146C48.6428 25.0146 48.5229 25.0473 48.4263 25.1127C48.3297 25.175 48.2565 25.2592 48.2067 25.3651C48.1599 25.471 48.1366 25.5847 48.1366 25.7062H47.7581C47.7581 25.4913 47.8032 25.3074 47.8936 25.1548C47.9839 24.999 48.107 24.8806 48.2628 24.7996C48.4185 24.7186 48.5945 24.6781 48.7908 24.6781C49.0805 24.6781 49.3173 24.7607 49.5011 24.9258C49.688 25.0878 49.7815 25.3308 49.7815 25.6548C49.7815 25.848 49.7332 26.0396 49.6366 26.2296C49.5401 26.4165 49.417 26.5988 49.2675 26.7764C49.1179 26.9508 48.9575 27.1144 48.7861 27.267C48.6179 27.4197 48.4606 27.5568 48.3142 27.6783H49.8937V28.0054H47.7347ZM50.7828 28.0054V25.1735L50.2547 25.2903V25.0193L50.9136 24.7342H51.18V28.0054H50.7828ZM51.8004 26.8137V26.4819H53.6509V26.8137H51.8004ZM55.5421 28.0614C55.2524 28.0614 55.0016 27.9914 54.7897 27.8512C54.581 27.7079 54.4206 27.51 54.3084 27.2577C54.1963 27.0022 54.1402 26.7063 54.1402 26.3698C54.1402 26.0333 54.1963 25.7389 54.3084 25.4866C54.4206 25.2311 54.581 25.0333 54.7897 24.8931C55.0016 24.7498 55.2524 24.6781 55.5421 24.6781C55.8318 24.6781 56.0811 24.7498 56.2898 24.8931C56.4985 25.0333 56.659 25.2311 56.7711 25.4866C56.8833 25.7389 56.9393 26.0333 56.9393 26.3698C56.9393 26.7063 56.8833 27.0022 56.7711 27.2577C56.659 27.51 56.4985 27.7079 56.2898 27.8512C56.0811 27.9914 55.8318 28.0614 55.5421 28.0614ZM55.5421 27.7156C55.7321 27.7156 55.9019 27.6627 56.0515 27.5568C56.2041 27.4477 56.3225 27.2935 56.4066 27.0941C56.4938 26.8916 56.5375 26.6502 56.5375 26.3698C56.5375 26.0894 56.4938 25.8495 56.4066 25.6501C56.3225 25.4508 56.2041 25.2981 56.0515 25.1922C55.9019 25.0831 55.7321 25.0286 55.5421 25.0286C55.3489 25.0286 55.1776 25.0831 55.0281 25.1922C54.8785 25.2981 54.7601 25.4508 54.6729 25.6501C54.5857 25.8495 54.5421 26.0894 54.5421 26.3698C54.5421 26.6502 54.5857 26.8916 54.6729 27.0941C54.7601 27.2935 54.8785 27.4477 55.0281 27.5568C55.1776 27.6627 55.3489 27.7156 55.5421 27.7156ZM57.4094 28.0054V27.7297C57.6306 27.5552 57.8394 27.3792 58.0356 27.2016C58.235 27.0209 58.411 26.8433 58.5637 26.6689C58.7194 26.4944 58.8409 26.3231 58.9282 26.1548C59.0185 25.9866 59.0637 25.8246 59.0637 25.6688C59.0637 25.5536 59.0434 25.4461 59.0029 25.3464C58.9656 25.2467 58.9033 25.1673 58.816 25.1081C58.7288 25.0458 58.6104 25.0146 58.4609 25.0146C58.3176 25.0146 58.1976 25.0473 58.101 25.1127C58.0045 25.175 57.9313 25.2592 57.8814 25.3651C57.8347 25.471 57.8113 25.5847 57.8113 25.7062H57.4328C57.4328 25.4913 57.478 25.3074 57.5683 25.1548C57.6587 24.999 57.7817 24.8806 57.9375 24.7996C58.0933 24.7186 58.2693 24.6781 58.4655 24.6781C58.7553 24.6781 58.992 24.7607 59.1759 24.9258C59.3628 25.0878 59.4562 25.3308 59.4562 25.6548C59.4562 25.848 59.4079 26.0396 59.3114 26.2296C59.2148 26.4165 59.0917 26.5988 58.9422 26.7764C58.7927 26.9508 58.6322 27.1144 58.4609 27.267C58.2926 27.4197 58.1353 27.5568 57.9889 27.6783H59.5684V28.0054H57.4094ZM60.065 26.8137V26.4819H61.9155V26.8137H60.065ZM62.4795 28.0054V27.7297C62.7007 27.5552 62.9095 27.3792 63.1057 27.2016C63.3051 27.0209 63.4811 26.8433 63.6338 26.6689C63.7896 26.4944 63.9111 26.3231 63.9983 26.1548C64.0886 25.9866 64.1338 25.8246 64.1338 25.6688C64.1338 25.5536 64.1136 25.4461 64.0731 25.3464C64.0357 25.2467 63.9734 25.1673 63.8861 25.1081C63.7989 25.0458 63.6805 25.0146 63.531 25.0146C63.3877 25.0146 63.2677 25.0473 63.1712 25.1127C63.0746 25.175 63.0014 25.2592 62.9515 25.3651C62.9048 25.471 62.8814 25.5847 62.8814 25.7062H62.5029C62.5029 25.4913 62.5481 25.3074 62.6384 25.1548C62.7288 24.999 62.8518 24.8806 63.0076 24.7996C63.1634 24.7186 63.3394 24.6781 63.5357 24.6781C63.8254 24.6781 64.0622 24.7607 64.246 24.9258C64.4329 25.0878 64.5263 25.3308 64.5263 25.6548C64.5263 25.848 64.4781 26.0396 64.3815 26.2296C64.2849 26.4165 64.1618 26.5988 64.0123 26.7764C63.8628 26.9508 63.7023 27.1144 63.531 27.267C63.3627 27.4197 63.2054 27.5568 63.059 27.6783H64.6385V28.0054H62.4795ZM66.2239 28.0614C66.0152 28.0614 65.8267 28.0241 65.6585 27.9493C65.4902 27.8714 65.3547 27.7561 65.2519 27.6035C65.1522 27.4508 65.0993 27.2608 65.093 27.0334H65.4902C65.4934 27.2203 65.5588 27.3823 65.6865 27.5194C65.8142 27.6533 65.9934 27.7203 66.2239 27.7203C66.4544 27.7203 66.6274 27.6564 66.7426 27.5287C66.861 27.401 66.9202 27.2468 66.9202 27.0661C66.9202 26.9134 66.8828 26.7888 66.808 26.6922C66.7364 26.5957 66.6383 26.524 66.5136 26.4773C66.3921 26.4305 66.2582 26.4072 66.1118 26.4072H65.8688V26.0754H66.1118C66.3236 26.0754 66.4887 26.0271 66.6071 25.9305C66.7286 25.8339 66.7894 25.6984 66.7894 25.524C66.7894 25.3775 66.7411 25.2576 66.6445 25.1641C66.551 25.0676 66.4108 25.0193 66.2239 25.0193C66.0432 25.0193 65.8984 25.0738 65.7893 25.1828C65.6803 25.2888 65.6195 25.4227 65.6071 25.5847H65.2099C65.2192 25.4071 65.2659 25.2498 65.35 25.1127C65.4373 24.9757 65.5557 24.8697 65.7052 24.795C65.8547 24.7171 66.0276 24.6781 66.2239 24.6781C66.4358 24.6781 66.6118 24.7155 66.752 24.7903C66.8953 24.8651 67.0028 24.9648 67.0744 25.0894C67.1492 25.214 67.1866 25.3511 67.1866 25.5006C67.1866 25.6657 67.1414 25.8168 67.051 25.9539C66.9607 26.0879 66.8252 26.1782 66.6445 26.2249C66.8376 26.2654 66.9981 26.3573 67.1258 26.5006C67.2535 26.6439 67.3174 26.8324 67.3174 27.0661C67.3174 27.2468 67.2754 27.4134 67.1912 27.5661C67.1102 27.7156 66.9887 27.8356 66.8267 27.9259C66.6647 28.0163 66.4638 28.0614 66.2239 28.0614ZM67.9524 28.4727V24.6408H68.345V28.4727H67.9524ZM70.2753 28.0054V24.7342H70.6678V27.6923H72.1912V28.0054H70.2753ZM73.4782 28.0614C73.285 28.0614 73.1246 28.0287 72.9968 27.9633C72.8691 27.8979 72.7741 27.8107 72.7118 27.7016C72.6495 27.5926 72.6183 27.4742 72.6183 27.3465C72.6183 27.1097 72.7087 26.9274 72.8894 26.7997C73.0701 26.672 73.3162 26.6081 73.6277 26.6081H74.2539V26.5801C74.2539 26.3776 74.2009 26.2249 74.095 26.1221C73.9891 26.0162 73.8473 25.9632 73.6698 25.9632C73.5171 25.9632 73.3847 26.0022 73.2726 26.0801C73.1635 26.1548 73.095 26.2654 73.0669 26.4119H72.6651C72.6806 26.2436 72.7367 26.1019 72.8333 25.9866C72.933 25.8713 73.056 25.7841 73.2025 25.7249C73.3489 25.6626 73.5046 25.6314 73.6698 25.6314C73.9938 25.6314 74.2368 25.7187 74.3988 25.8931C74.5639 26.0645 74.6464 26.2935 74.6464 26.5801V28.0054H74.296L74.2726 27.5895C74.2072 27.7203 74.1106 27.8325 73.9829 27.9259C73.8582 28.0163 73.69 28.0614 73.4782 28.0614ZM73.5389 27.7297C73.6885 27.7297 73.8162 27.6907 73.9221 27.6128C74.0311 27.5349 74.1137 27.4337 74.1698 27.3091C74.2259 27.1845 74.2539 27.0536 74.2539 26.9165V26.9119H73.6604C73.4299 26.9119 73.2663 26.9524 73.1697 27.0334C73.0763 27.1113 73.0296 27.2094 73.0296 27.3278C73.0296 27.4493 73.0732 27.5474 73.1604 27.6222C73.2507 27.6938 73.3769 27.7297 73.5389 27.7297ZM76.1232 28.0614C75.8459 28.0614 75.6154 27.9914 75.4316 27.8512C75.2478 27.711 75.1403 27.5209 75.1091 27.281H75.511C75.536 27.4025 75.5998 27.5085 75.7026 27.5988C75.8085 27.686 75.9503 27.7297 76.1279 27.7297C76.293 27.7297 76.4145 27.6954 76.4924 27.6269C76.5703 27.5552 76.6092 27.4711 76.6092 27.3745C76.6092 27.2343 76.5578 27.1409 76.455 27.0941C76.3553 27.0474 76.2135 27.0053 76.0297 26.9679C75.9051 26.943 75.7805 26.9072 75.6559 26.8605C75.5313 26.8137 75.4269 26.7483 75.3428 26.6642C75.2587 26.577 75.2166 26.4633 75.2166 26.3231C75.2166 26.1206 75.2914 25.9554 75.4409 25.8277C75.5936 25.6969 75.7992 25.6314 76.0578 25.6314C76.3039 25.6314 76.5048 25.6938 76.6606 25.8184C76.8195 25.9399 76.9114 26.1143 76.9363 26.3418H76.5485C76.5329 26.2234 76.4815 26.1315 76.3942 26.066C76.3101 25.9975 76.1964 25.9632 76.0531 25.9632C75.9129 25.9632 75.8039 25.9928 75.726 26.052C75.6512 26.1112 75.6138 26.1891 75.6138 26.2857C75.6138 26.3791 75.6621 26.4524 75.7587 26.5053C75.8584 26.5583 75.9924 26.6034 76.1606 26.6408C76.3039 26.672 76.4394 26.7109 76.5671 26.7577C76.698 26.8013 76.8039 26.8683 76.8849 26.9586C76.969 27.0458 77.0111 27.1736 77.0111 27.3418C77.0142 27.5505 76.9348 27.7234 76.7728 27.8605C76.6139 27.9945 76.3974 28.0614 76.1232 28.0614ZM78.3828 28.0054C78.171 28.0054 78.0043 27.954 77.8828 27.8512C77.7613 27.7484 77.7006 27.563 77.7006 27.2951V26.0193H77.2987V25.6875H77.7006L77.752 25.1314H78.0931V25.6875H78.7754V26.0193H78.0931V27.2951C78.0931 27.4415 78.1227 27.5412 78.1819 27.5941C78.2411 27.644 78.3454 27.6689 78.495 27.6689H78.738V28.0054H78.3828ZM81.5529 28.0614C81.3441 28.0614 81.1557 28.0241 80.9874 27.9493C80.8192 27.8714 80.6837 27.7561 80.5809 27.6035C80.4812 27.4508 80.4282 27.2608 80.422 27.0334H80.8192C80.8223 27.2203 80.8877 27.3823 81.0155 27.5194C81.1432 27.6533 81.3223 27.7203 81.5529 27.7203C81.7834 27.7203 81.9563 27.6564 82.0716 27.5287C82.19 27.401 82.2492 27.2468 82.2492 27.0661C82.2492 26.9134 82.2118 26.7888 82.137 26.6922C82.0654 26.5957 81.9672 26.524 81.8426 26.4773C81.7211 26.4305 81.5871 26.4072 81.4407 26.4072H81.1977V26.0754H81.4407C81.6526 26.0754 81.8177 26.0271 81.9361 25.9305C82.0576 25.8339 82.1183 25.6984 82.1183 25.524C82.1183 25.3775 82.07 25.2576 81.9735 25.1641C81.88 25.0676 81.7398 25.0193 81.5529 25.0193C81.3722 25.0193 81.2273 25.0738 81.1183 25.1828C81.0092 25.2888 80.9485 25.4227 80.936 25.5847H80.5388C80.5482 25.4071 80.5949 25.2498 80.679 25.1127C80.7662 24.9757 80.8846 24.8697 81.0342 24.795C81.1837 24.7171 81.3566 24.6781 81.5529 24.6781C81.7647 24.6781 81.9407 24.7155 82.0809 24.7903C82.2242 24.8651 82.3317 24.9648 82.4034 25.0894C82.4781 25.214 82.5155 25.3511 82.5155 25.5006C82.5155 25.6657 82.4704 25.8168 82.38 25.9539C82.2897 26.0879 82.1541 26.1782 81.9735 26.2249C82.1666 26.2654 82.3271 26.3573 82.4548 26.5006C82.5825 26.6439 82.6464 26.8324 82.6464 27.0661C82.6464 27.2468 82.6043 27.4134 82.5202 27.5661C82.4392 27.7156 82.3177 27.8356 82.1557 27.9259C81.9937 28.0163 81.7928 28.0614 81.5529 28.0614ZM84.5572 28.0614C84.2674 28.0614 84.0166 27.9914 83.8048 27.8512C83.5961 27.7079 83.4356 27.51 83.3235 27.2577C83.2113 27.0022 83.1552 26.7063 83.1552 26.3698C83.1552 26.0333 83.2113 25.7389 83.3235 25.4866C83.4356 25.2311 83.5961 25.0333 83.8048 24.8931C84.0166 24.7498 84.2674 24.6781 84.5572 24.6781C84.8469 24.6781 85.0961 24.7498 85.3049 24.8931C85.5136 25.0333 85.674 25.2311 85.7862 25.4866C85.8983 25.7389 85.9544 26.0333 85.9544 26.3698C85.9544 26.7063 85.8983 27.0022 85.7862 27.2577C85.674 27.51 85.5136 27.7079 85.3049 27.8512C85.0961 27.9914 84.8469 28.0614 84.5572 28.0614ZM84.5572 27.7156C84.7472 27.7156 84.917 27.6627 85.0665 27.5568C85.2192 27.4477 85.3376 27.2935 85.4217 27.0941C85.5089 26.8916 85.5525 26.6502 85.5525 26.3698C85.5525 26.0894 85.5089 25.8495 85.4217 25.6501C85.3376 25.4508 85.2192 25.2981 85.0665 25.1922C84.917 25.0831 84.7472 25.0286 84.5572 25.0286C84.364 25.0286 84.1927 25.0831 84.0431 25.1922C83.8936 25.2981 83.7752 25.4508 83.688 25.6501C83.6007 25.8495 83.5571 26.0894 83.5571 26.3698C83.5571 26.6502 83.6007 26.8916 83.688 27.0941C83.7752 27.2935 83.8936 27.4477 84.0431 27.5568C84.1927 27.6627 84.364 27.7156 84.5572 27.7156ZM88.7863 28.0614C88.5558 28.0614 88.3533 28.0085 88.1788 27.9026C88.0075 27.7966 87.8735 27.6518 87.7769 27.468C87.6835 27.2842 87.6368 27.0754 87.6368 26.8418C87.6368 26.6081 87.685 26.4009 87.7816 26.2203C87.8782 26.0364 88.0122 25.8931 88.1835 25.7903C88.3548 25.6844 88.5573 25.6314 88.791 25.6314C88.981 25.6314 89.1493 25.6704 89.2957 25.7483C89.4421 25.8262 89.5558 25.9352 89.6368 26.0754V24.6408H90.0294V28.0054H89.6742L89.6368 27.6222C89.5621 27.7343 89.4546 27.8356 89.3144 27.9259C89.1742 28.0163 88.9982 28.0614 88.7863 28.0614ZM88.8284 27.7203C88.9842 27.7203 89.1212 27.6845 89.2396 27.6128C89.3611 27.5381 89.4546 27.4353 89.52 27.3044C89.5885 27.1736 89.6228 27.0209 89.6228 26.8464C89.6228 26.672 89.5885 26.5193 89.52 26.3885C89.4546 26.2576 89.3611 26.1564 89.2396 26.0847C89.1212 26.01 88.9842 25.9726 88.8284 25.9726C88.6757 25.9726 88.5387 26.01 88.4172 26.0847C88.2988 26.1564 88.2053 26.2576 88.1368 26.3885C88.0713 26.5193 88.0386 26.672 88.0386 26.8464C88.0386 27.0209 88.0713 27.1736 88.1368 27.3044C88.2053 27.4353 88.2988 27.5381 88.4172 27.6128C88.5387 27.6845 88.6757 27.7203 88.8284 27.7203ZM91.4403 28.0614C91.2472 28.0614 91.0867 28.0287 90.959 27.9633C90.8313 27.8979 90.7362 27.8107 90.6739 27.7016C90.6116 27.5926 90.5805 27.4742 90.5805 27.3465C90.5805 27.1097 90.6708 26.9274 90.8515 26.7997C91.0322 26.672 91.2783 26.6081 91.5898 26.6081H92.216V26.5801C92.216 26.3776 92.1631 26.2249 92.0572 26.1221C91.9512 26.0162 91.8095 25.9632 91.6319 25.9632C91.4793 25.9632 91.3468 26.0022 91.2347 26.0801C91.1257 26.1548 91.0571 26.2654 91.0291 26.4119H90.6272C90.6428 26.2436 90.6988 26.1019 90.7954 25.9866C90.8951 25.8713 91.0182 25.7841 91.1646 25.7249C91.311 25.6626 91.4668 25.6314 91.6319 25.6314C91.9559 25.6314 92.1989 25.7187 92.3609 25.8931C92.526 26.0645 92.6086 26.2935 92.6086 26.5801V28.0054H92.2581L92.2347 27.5895C92.1693 27.7203 92.0727 27.8325 91.945 27.9259C91.8204 28.0163 91.6522 28.0614 91.4403 28.0614ZM91.5011 27.7297C91.6506 27.7297 91.7783 27.6907 91.8843 27.6128C91.9933 27.5349 92.0758 27.4337 92.1319 27.3091C92.188 27.1845 92.216 27.0536 92.216 26.9165V26.9119H91.6226C91.392 26.9119 91.2285 26.9524 91.1319 27.0334C91.0384 27.1113 90.9917 27.2094 90.9917 27.3278C90.9917 27.4493 91.0353 27.5474 91.1225 27.6222C91.2129 27.6938 91.3391 27.7297 91.5011 27.7297ZM93.3814 29.0334L93.9561 27.7811H93.8206L92.9 25.6875H93.3253L94.0917 27.4913L94.9048 25.6875H95.3113L93.7926 29.0334H93.3814ZM96.4766 28.0614C96.1994 28.0614 95.9688 27.9914 95.785 27.8512C95.6012 27.711 95.4937 27.5209 95.4626 27.281H95.8645C95.8894 27.4025 95.9533 27.5085 96.0561 27.5988C96.162 27.686 96.3037 27.7297 96.4813 27.7297C96.6464 27.7297 96.7679 27.6954 96.8458 27.6269C96.9237 27.5552 96.9626 27.4711 96.9626 27.3745C96.9626 27.2343 96.9112 27.1409 96.8084 27.0941C96.7087 27.0474 96.567 27.0053 96.3832 26.9679C96.2586 26.943 96.1339 26.9072 96.0093 26.8605C95.8847 26.8137 95.7804 26.7483 95.6962 26.6642C95.6121 26.577 95.5701 26.4633 95.5701 26.3231C95.5701 26.1206 95.6448 25.9554 95.7944 25.8277C95.947 25.6969 96.1526 25.6314 96.4112 25.6314C96.6573 25.6314 96.8583 25.6938 97.014 25.8184C97.1729 25.9399 97.2648 26.1143 97.2898 26.3418H96.9019C96.8863 26.2234 96.8349 26.1315 96.7477 26.066C96.6636 25.9975 96.5499 25.9632 96.4065 25.9632C96.2664 25.9632 96.1573 25.9928 96.0794 26.052C96.0047 26.1112 95.9673 26.1891 95.9673 26.2857C95.9673 26.3791 96.0156 26.4524 96.1121 26.5053C96.2118 26.5583 96.3458 26.6034 96.514 26.6408C96.6573 26.672 96.7929 26.7109 96.9206 26.7577C97.0514 26.8013 97.1574 26.8683 97.2384 26.9586C97.3225 27.0458 97.3645 27.1736 97.3645 27.3418C97.3676 27.5505 97.2882 27.7234 97.1262 27.8605C96.9673 27.9945 96.7508 28.0614 96.4766 28.0614Z" fill="#595E64"/>
<path d="M14.5018 18.0054L12.1708 11.7054H13.1878L15.0778 17.0154L16.9768 11.7054H17.9848L15.6538 18.0054H14.5018ZM19.2951 12.6954C19.1151 12.6954 18.9651 12.6414 18.8451 12.5334C18.7311 12.4194 18.6741 12.2784 18.6741 12.1104C18.6741 11.9424 18.7311 11.8044 18.8451 11.6964C18.9651 11.5824 19.1151 11.5254 19.2951 11.5254C19.4751 11.5254 19.6221 11.5824 19.7361 11.6964C19.8561 11.8044 19.9161 11.9424 19.9161 12.1104C19.9161 12.2784 19.8561 12.4194 19.7361 12.5334C19.6221 12.6414 19.4751 12.6954 19.2951 12.6954ZM18.8181 18.0054V13.5414H19.7721V18.0054H18.8181ZM22.8135 18.1134C22.2495 18.1134 21.7845 17.9754 21.4185 17.6994C21.0525 17.4234 20.8425 17.0574 20.7885 16.6014H21.7515C21.7995 16.8054 21.9135 16.9824 22.0935 17.1324C22.2735 17.2764 22.5105 17.3484 22.8045 17.3484C23.0925 17.3484 23.3025 17.2884 23.4345 17.1684C23.5665 17.0484 23.6325 16.9104 23.6325 16.7544C23.6325 16.5264 23.5395 16.3734 23.3535 16.2954C23.1735 16.2114 22.9215 16.1364 22.5975 16.0704C22.3455 16.0164 22.0935 15.9444 21.8415 15.8544C21.5955 15.7644 21.3885 15.6384 21.2205 15.4764C21.0585 15.3084 20.9775 15.0834 20.9775 14.8014C20.9775 14.4114 21.1275 14.0874 21.4275 13.8294C21.7275 13.5654 22.1475 13.4334 22.6875 13.4334C23.1855 13.4334 23.5875 13.5534 23.8935 13.7934C24.2055 14.0334 24.3885 14.3724 24.4425 14.8104H23.5245C23.4945 14.6184 23.4045 14.4684 23.2545 14.3604C23.1105 14.2524 22.9155 14.1984 22.6695 14.1984C22.4295 14.1984 22.2435 14.2494 22.1115 14.3514C21.9795 14.4474 21.9135 14.5734 21.9135 14.7294C21.9135 14.8854 22.0035 15.0084 22.1835 15.0984C22.3695 15.1884 22.6125 15.2694 22.9125 15.3414C23.2125 15.4074 23.4885 15.4854 23.7405 15.5754C23.9985 15.6594 24.2055 15.7854 24.3615 15.9534C24.5175 16.1214 24.5955 16.3674 24.5955 16.6914C24.6015 17.0994 24.4425 17.4384 24.1185 17.7084C23.8005 17.9784 23.3655 18.1134 22.8135 18.1134ZM26.1769 12.6954C25.9969 12.6954 25.8469 12.6414 25.7269 12.5334C25.6129 12.4194 25.5559 12.2784 25.5559 12.1104C25.5559 11.9424 25.6129 11.8044 25.7269 11.6964C25.8469 11.5824 25.9969 11.5254 26.1769 11.5254C26.3569 11.5254 26.5039 11.5824 26.6179 11.6964C26.7379 11.8044 26.7979 11.9424 26.7979 12.1104C26.7979 12.2784 26.7379 12.4194 26.6179 12.5334C26.5039 12.6414 26.3569 12.6954 26.1769 12.6954ZM25.6999 18.0054V13.5414H26.6539V18.0054H25.6999ZM29.7853 18.0054C29.3473 18.0054 28.9993 17.9004 28.7413 17.6904C28.4833 17.4744 28.3543 17.0934 28.3543 16.5474V14.3424H27.5893V13.5414H28.3543L28.4713 12.4074H29.3083V13.5414H30.5683V14.3424H29.3083V16.5474C29.3083 16.7934 29.3593 16.9644 29.4613 17.0604C29.5693 17.1504 29.7523 17.1954 30.0103 17.1954H30.5233V18.0054H29.7853ZM33.5257 18.1134C33.0997 18.1134 32.7157 18.0174 32.3737 17.8254C32.0377 17.6274 31.7707 17.3544 31.5727 17.0064C31.3747 16.6524 31.2757 16.2414 31.2757 15.7734C31.2757 15.3054 31.3747 14.8974 31.5727 14.5494C31.7767 14.1954 32.0497 13.9224 32.3917 13.7304C32.7337 13.5324 33.1147 13.4334 33.5347 13.4334C33.9607 13.4334 34.3417 13.5324 34.6777 13.7304C35.0197 13.9224 35.2897 14.1954 35.4877 14.5494C35.6917 14.8974 35.7937 15.3054 35.7937 15.7734C35.7937 16.2414 35.6917 16.6524 35.4877 17.0064C35.2897 17.3544 35.0197 17.6274 34.6777 17.8254C34.3357 18.0174 33.9517 18.1134 33.5257 18.1134ZM33.5257 17.2944C33.7537 17.2944 33.9637 17.2374 34.1557 17.1234C34.3537 17.0094 34.5127 16.8414 34.6327 16.6194C34.7527 16.3914 34.8127 16.1094 34.8127 15.7734C34.8127 15.4374 34.7527 15.1584 34.6327 14.9364C34.5187 14.7084 34.3627 14.5374 34.1647 14.4234C33.9727 14.3094 33.7627 14.2524 33.5347 14.2524C33.3067 14.2524 33.0937 14.3094 32.8957 14.4234C32.7037 14.5374 32.5477 14.7084 32.4277 14.9364C32.3077 15.1584 32.2477 15.4374 32.2477 15.7734C32.2477 16.1094 32.3077 16.3914 32.4277 16.6194C32.5477 16.8414 32.7037 17.0094 32.8957 17.1234C33.0877 17.2374 33.2977 17.2944 33.5257 17.2944ZM36.8254 18.0054V13.5414H37.6804L37.7614 14.3874C37.9174 14.0934 38.1334 13.8624 38.4094 13.6944C38.6914 13.5204 39.0304 13.4334 39.4264 13.4334V14.4324H39.1654C38.9014 14.4324 38.6644 14.4774 38.4544 14.5674C38.2504 14.6514 38.0854 14.7984 37.9594 15.0084C37.8394 15.2124 37.7794 15.4974 37.7794 15.8634V18.0054H36.8254ZM42.0264 18.1134C41.4624 18.1134 40.9974 17.9754 40.6314 17.6994C40.2654 17.4234 40.0554 17.0574 40.0014 16.6014H40.9644C41.0124 16.8054 41.1264 16.9824 41.3064 17.1324C41.4864 17.2764 41.7234 17.3484 42.0174 17.3484C42.3054 17.3484 42.5154 17.2884 42.6474 17.1684C42.7794 17.0484 42.8454 16.9104 42.8454 16.7544C42.8454 16.5264 42.7524 16.3734 42.5664 16.2954C42.3864 16.2114 42.1344 16.1364 41.8104 16.0704C41.5584 16.0164 41.3064 15.9444 41.0544 15.8544C40.8084 15.7644 40.6014 15.6384 40.4334 15.4764C40.2714 15.3084 40.1904 15.0834 40.1904 14.8014C40.1904 14.4114 40.3404 14.0874 40.6404 13.8294C40.9404 13.5654 41.3604 13.4334 41.9004 13.4334C42.3984 13.4334 42.8004 13.5534 43.1064 13.7934C43.4184 14.0334 43.6014 14.3724 43.6554 14.8104H42.7374C42.7074 14.6184 42.6174 14.4684 42.4674 14.3604C42.3234 14.2524 42.1284 14.1984 41.8824 14.1984C41.6424 14.1984 41.4564 14.2494 41.3244 14.3514C41.1924 14.4474 41.1264 14.5734 41.1264 14.7294C41.1264 14.8854 41.2164 15.0084 41.3964 15.0984C41.5824 15.1884 41.8254 15.2694 42.1254 15.3414C42.4254 15.4074 42.7014 15.4854 42.9534 15.5754C43.2114 15.6594 43.4184 15.7854 43.5744 15.9534C43.7304 16.1214 43.8084 16.3674 43.8084 16.6914C43.8144 17.0994 43.6554 17.4384 43.3314 17.7084C43.0134 17.9784 42.5784 18.1134 42.0264 18.1134ZM47.3424 18.0054V14.3424H46.7034V13.5414H47.3424V12.8934C47.3424 12.4074 47.4624 12.0594 47.7024 11.8494C47.9484 11.6334 48.2934 11.5254 48.7374 11.5254H49.2054V12.3354H48.8814C48.6714 12.3354 48.5214 12.3804 48.4314 12.4704C48.3414 12.5544 48.2964 12.6984 48.2964 12.9024V13.5414H49.3224V14.3424H48.2964V18.0054H47.3424ZM50.2287 18.0054V13.5414H51.0837L51.1647 14.3874C51.3207 14.0934 51.5367 13.8624 51.8127 13.6944C52.0947 13.5204 52.4337 13.4334 52.8297 13.4334V14.4324H52.5687C52.3047 14.4324 52.0677 14.4774 51.8577 14.5674C51.6537 14.6514 51.4887 14.7984 51.3627 15.0084C51.2427 15.2124 51.1827 15.4974 51.1827 15.8634V18.0054H50.2287ZM55.6126 18.1134C55.1746 18.1134 54.7846 18.0174 54.4426 17.8254C54.1066 17.6274 53.8426 17.3544 53.6506 17.0064C53.4586 16.6584 53.3626 16.2534 53.3626 15.7914C53.3626 15.3234 53.4556 14.9124 53.6416 14.5584C53.8336 14.2044 54.0976 13.9284 54.4336 13.7304C54.7756 13.5324 55.1716 13.4334 55.6216 13.4334C56.0596 13.4334 56.4406 13.5324 56.7646 13.7304C57.0886 13.9224 57.3406 14.1804 57.5206 14.5044C57.7006 14.8284 57.7906 15.1854 57.7906 15.5754C57.7906 15.6354 57.7876 15.7014 57.7816 15.7734C57.7816 15.8394 57.7786 15.9144 57.7726 15.9984H54.2986C54.3286 16.4304 54.4696 16.7604 54.7216 16.9884C54.9796 17.2104 55.2766 17.3214 55.6126 17.3214C55.8826 17.3214 56.1076 17.2614 56.2876 17.1414C56.4736 17.0154 56.6116 16.8474 56.7016 16.6374H57.6556C57.5356 17.0574 57.2956 17.4084 56.9356 17.6904C56.5816 17.9724 56.1406 18.1134 55.6126 18.1134ZM55.6126 14.2164C55.2946 14.2164 55.0126 14.3124 54.7666 14.5044C54.5206 14.6904 54.3706 14.9724 54.3166 15.3504H56.8366C56.8186 15.0024 56.6956 14.7264 56.4676 14.5224C56.2396 14.3184 55.9546 14.2164 55.6126 14.2164ZM62.3805 19.9854V17.3124C62.2365 17.5224 62.0385 17.7084 61.7865 17.8704C61.5345 18.0324 61.2105 18.1134 60.8145 18.1134C60.3825 18.1134 60.0015 18.0114 59.6715 17.8074C59.3415 17.6034 59.0835 17.3244 58.8975 16.9704C58.7115 16.6164 58.6185 16.2144 58.6185 15.7644C58.6185 15.3144 58.7115 14.9154 58.8975 14.5674C59.0835 14.2134 59.3415 13.9374 59.6715 13.7394C60.0075 13.5354 60.3915 13.4334 60.8235 13.4334C61.1775 13.4334 61.4865 13.5024 61.7505 13.6404C62.0205 13.7784 62.2305 13.9734 62.3805 14.2254L62.4795 13.5414H63.3345V19.9854H62.3805ZM60.9855 17.2854C61.3935 17.2854 61.7265 17.1444 61.9845 16.8624C62.2485 16.5804 62.3805 16.2174 62.3805 15.7734C62.3805 15.3234 62.2485 14.9604 61.9845 14.6844C61.7265 14.4024 61.3935 14.2614 60.9855 14.2614C60.5775 14.2614 60.2415 14.4024 59.9775 14.6844C59.7135 14.9604 59.5815 15.3234 59.5815 15.7734C59.5815 16.0674 59.6415 16.3284 59.7615 16.5564C59.8815 16.7844 60.0465 16.9644 60.2565 17.0964C60.4725 17.2224 60.7155 17.2854 60.9855 17.2854ZM66.1843 18.1134C65.6443 18.1134 65.2183 17.9454 64.9063 17.6094C64.6003 17.2734 64.4473 16.7724 64.4473 16.1064V13.5414H65.4013V16.0074C65.4013 16.8714 65.7553 17.3034 66.4633 17.3034C66.8173 17.3034 67.1083 17.1774 67.3363 16.9254C67.5643 16.6734 67.6783 16.3134 67.6783 15.8454V13.5414H68.6323V18.0054H67.7863L67.7143 17.2224C67.5763 17.4984 67.3723 17.7174 67.1023 17.8794C66.8383 18.0354 66.5323 18.1134 66.1843 18.1134ZM71.9339 18.1134C71.4959 18.1134 71.1059 18.0174 70.7639 17.8254C70.4279 17.6274 70.1639 17.3544 69.9719 17.0064C69.7799 16.6584 69.6839 16.2534 69.6839 15.7914C69.6839 15.3234 69.7769 14.9124 69.9629 14.5584C70.1549 14.2044 70.4189 13.9284 70.7549 13.7304C71.0969 13.5324 71.4929 13.4334 71.9429 13.4334C72.3809 13.4334 72.7619 13.5324 73.0859 13.7304C73.4099 13.9224 73.6619 14.1804 73.8419 14.5044C74.0219 14.8284 74.1119 15.1854 74.1119 15.5754C74.1119 15.6354 74.1089 15.7014 74.1029 15.7734C74.1029 15.8394 74.0999 15.9144 74.0939 15.9984H70.6199C70.6499 16.4304 70.7909 16.7604 71.0429 16.9884C71.3009 17.2104 71.5979 17.3214 71.9339 17.3214C72.2039 17.3214 72.4289 17.2614 72.6089 17.1414C72.7949 17.0154 72.9329 16.8474 73.0229 16.6374H73.9769C73.8569 17.0574 73.6169 17.4084 73.2569 17.6904C72.9029 17.9724 72.4619 18.1134 71.9339 18.1134ZM71.9339 14.2164C71.6159 14.2164 71.3339 14.3124 71.0879 14.5044C70.8419 14.6904 70.6919 14.9724 70.6379 15.3504H73.1579C73.1399 15.0024 73.0169 14.7264 72.7889 14.5224C72.5609 14.3184 72.2759 14.2164 71.9339 14.2164ZM75.1018 18.0054V13.5414H75.9478L76.0198 14.3244C76.1578 14.0484 76.3588 13.8324 76.6228 13.6764C76.8928 13.5144 77.2018 13.4334 77.5498 13.4334C78.0898 13.4334 78.5128 13.6014 78.8188 13.9374C79.1308 14.2734 79.2868 14.7744 79.2868 15.4404V18.0054H78.3418V15.5394C78.3418 14.6754 77.9878 14.2434 77.2798 14.2434C76.9258 14.2434 76.6318 14.3694 76.3978 14.6214C76.1698 14.8734 76.0558 15.2334 76.0558 15.7014V18.0054H75.1018ZM82.5254 18.1134C82.0874 18.1134 81.6944 18.0144 81.3464 17.8164C81.0044 17.6184 80.7344 17.3454 80.5364 16.9974C80.3444 16.6434 80.2484 16.2354 80.2484 15.7734C80.2484 15.3114 80.3444 14.9064 80.5364 14.5584C80.7344 14.2044 81.0044 13.9284 81.3464 13.7304C81.6944 13.5324 82.0874 13.4334 82.5254 13.4334C83.0774 13.4334 83.5394 13.5774 83.9114 13.8654C84.2894 14.1534 84.5324 14.5434 84.6404 15.0354H83.6414C83.5814 14.7894 83.4494 14.5974 83.2454 14.4594C83.0414 14.3214 82.8014 14.2524 82.5254 14.2524C82.2914 14.2524 82.0754 14.3124 81.8774 14.4324C81.6794 14.5464 81.5204 14.7174 81.4004 14.9454C81.2804 15.1674 81.2204 15.4434 81.2204 15.7734C81.2204 16.1034 81.2804 16.3824 81.4004 16.6104C81.5204 16.8324 81.6794 17.0034 81.8774 17.1234C82.0754 17.2434 82.2914 17.3034 82.5254 17.3034C82.8014 17.3034 83.0414 17.2344 83.2454 17.0964C83.4494 16.9584 83.5814 16.7634 83.6414 16.5114H84.6404C84.5384 16.9914 84.2984 17.3784 83.9204 17.6724C83.5424 17.9664 83.0774 18.1134 82.5254 18.1134ZM86.197 19.9854L87.268 17.6364H87.007L85.243 13.5414H86.278L87.646 16.8444L89.077 13.5414H90.085L87.205 19.9854H86.197ZM95.1709 18.1134C94.7389 18.1134 94.3579 18.0114 94.0279 17.8074C93.6979 17.6034 93.4399 17.3244 93.2539 16.9704C93.0679 16.6164 92.9749 16.2144 92.9749 15.7644C92.9749 15.3144 93.0679 14.9154 93.2539 14.5674C93.4399 14.2134 93.6979 13.9374 94.0279 13.7394C94.3639 13.5354 94.7479 13.4334 95.1799 13.4334C95.5339 13.4334 95.8429 13.5024 96.1069 13.6404C96.3769 13.7784 96.5869 13.9734 96.7369 14.2254V11.5254H97.6909V18.0054H96.8359L96.7369 17.3124C96.5929 17.5224 96.3949 17.7084 96.1429 17.8704C95.8909 18.0324 95.5669 18.1134 95.1709 18.1134ZM95.3419 17.2854C95.7499 17.2854 96.0829 17.1444 96.3409 16.8624C96.6049 16.5804 96.7369 16.2174 96.7369 15.7734C96.7369 15.3234 96.6049 14.9604 96.3409 14.6844C96.0829 14.4024 95.7499 14.2614 95.3419 14.2614C94.9339 14.2614 94.5979 14.4024 94.3339 14.6844C94.0699 14.9604 93.9379 15.3234 93.9379 15.7734C93.9379 16.0674 93.9979 16.3284 94.1179 16.5564C94.2379 16.7844 94.4029 16.9644 94.6129 17.0964C94.8289 17.2224 95.0719 17.2854 95.3419 17.2854ZM99.4338 12.6954C99.2538 12.6954 99.1038 12.6414 98.9838 12.5334C98.8698 12.4194 98.8128 12.2784 98.8128 12.1104C98.8128 11.9424 98.8698 11.8044 98.9838 11.6964C99.1038 11.5824 99.2538 11.5254 99.4338 11.5254C99.6138 11.5254 99.7608 11.5824 99.8748 11.6964C99.9948 11.8044 100.055 11.9424 100.055 12.1104C100.055 12.2784 99.9948 12.4194 99.8748 12.5334C99.7608 12.6414 99.6138 12.6954 99.4338 12.6954ZM98.9568 18.0054V13.5414H99.9108V18.0054H98.9568ZM102.952 18.1134C102.388 18.1134 101.923 17.9754 101.557 17.6994C101.191 17.4234 100.981 17.0574 100.927 16.6014H101.89C101.938 16.8054 102.052 16.9824 102.232 17.1324C102.412 17.2764 102.649 17.3484 102.943 17.3484C103.231 17.3484 103.441 17.2884 103.573 17.1684C103.705 17.0484 103.771 16.9104 103.771 16.7544C103.771 16.5264 103.678 16.3734 103.492 16.2954C103.312 16.2114 103.06 16.1364 102.736 16.0704C102.484 16.0164 102.232 15.9444 101.98 15.8544C101.734 15.7644 101.527 15.6384 101.359 15.4764C101.197 15.3084 101.116 15.0834 101.116 14.8014C101.116 14.4114 101.266 14.0874 101.566 13.8294C101.866 13.5654 102.286 13.4334 102.826 13.4334C103.324 13.4334 103.726 13.5534 104.032 13.7934C104.344 14.0334 104.527 14.3724 104.581 14.8104H103.663C103.633 14.6184 103.543 14.4684 103.393 14.3604C103.249 14.2524 103.054 14.1984 102.808 14.1984C102.568 14.1984 102.382 14.2494 102.25 14.3514C102.118 14.4474 102.052 14.5734 102.052 14.7294C102.052 14.8854 102.142 15.0084 102.322 15.0984C102.508 15.1884 102.751 15.2694 103.051 15.3414C103.351 15.4074 103.627 15.4854 103.879 15.5754C104.137 15.6594 104.344 15.7854 104.5 15.9534C104.656 16.1214 104.734 16.3674 104.734 16.6914C104.74 17.0994 104.581 17.4384 104.257 17.7084C103.939 17.9784 103.504 18.1134 102.952 18.1134ZM107.481 18.0054C107.043 18.0054 106.695 17.9004 106.437 17.6904C106.179 17.4744 106.05 17.0934 106.05 16.5474V14.3424H105.285V13.5414H106.05L106.167 12.4074H107.004V13.5414H108.264V14.3424H107.004V16.5474C107.004 16.7934 107.055 16.9644 107.157 17.0604C107.265 17.1504 107.448 17.1954 107.706 17.1954H108.219V18.0054H107.481ZM109.247 18.0054V13.5414H110.102L110.183 14.3874C110.339 14.0934 110.555 13.8624 110.831 13.6944C111.113 13.5204 111.452 13.4334 111.848 13.4334V14.4324H111.587C111.323 14.4324 111.086 14.4774 110.876 14.5674C110.672 14.6514 110.507 14.7984 110.381 15.0084C110.261 15.2124 110.201 15.4974 110.201 15.8634V18.0054H109.247ZM113.206 12.6954C113.026 12.6954 112.876 12.6414 112.756 12.5334C112.642 12.4194 112.585 12.2784 112.585 12.1104C112.585 11.9424 112.642 11.8044 112.756 11.6964C112.876 11.5824 113.026 11.5254 113.206 11.5254C113.386 11.5254 113.533 11.5824 113.647 11.6964C113.767 11.8044 113.827 11.9424 113.827 12.1104C113.827 12.2784 113.767 12.4194 113.647 12.5334C113.533 12.6414 113.386 12.6954 113.206 12.6954ZM112.729 18.0054V13.5414H113.683V18.0054H112.729ZM117.454 18.1134C117.106 18.1134 116.797 18.0444 116.527 17.9064C116.263 17.7684 116.053 17.5734 115.897 17.3214L115.798 18.0054H114.943V11.5254H115.897V14.2344C116.041 14.0244 116.239 13.8384 116.491 13.6764C116.743 13.5144 117.067 13.4334 117.463 13.4334C117.895 13.4334 118.276 13.5354 118.606 13.7394C118.936 13.9434 119.194 14.2224 119.38 14.5764C119.572 14.9304 119.668 15.3324 119.668 15.7824C119.668 16.2324 119.572 16.6344 119.38 16.9884C119.194 17.3364 118.936 17.6124 118.606 17.8164C118.276 18.0144 117.892 18.1134 117.454 18.1134ZM117.292 17.2854C117.7 17.2854 118.036 17.1474 118.3 16.8714C118.564 16.5894 118.696 16.2234 118.696 15.7734C118.696 15.4794 118.636 15.2184 118.516 14.9904C118.396 14.7624 118.231 14.5854 118.021 14.4594C117.811 14.3274 117.568 14.2614 117.292 14.2614C116.884 14.2614 116.548 14.4024 116.284 14.6844C116.026 14.9664 115.897 15.3294 115.897 15.7734C115.897 16.2234 116.026 16.5894 116.284 16.8714C116.548 17.1474 116.884 17.2854 117.292 17.2854ZM122.346 18.1134C121.806 18.1134 121.38 17.9454 121.068 17.6094C120.762 17.2734 120.609 16.7724 120.609 16.1064V13.5414H121.563V16.0074C121.563 16.8714 121.917 17.3034 122.625 17.3034C122.979 17.3034 123.27 17.1774 123.498 16.9254C123.726 16.6734 123.84 16.3134 123.84 15.8454V13.5414H124.794V18.0054H123.948L123.876 17.2224C123.738 17.4984 123.534 17.7174 123.264 17.8794C123 18.0354 122.694 18.1134 122.346 18.1134ZM127.88 18.0054C127.442 18.0054 127.094 17.9004 126.836 17.6904C126.578 17.4744 126.449 17.0934 126.449 16.5474V14.3424H125.684V13.5414H126.449L126.566 12.4074H127.403V13.5414H128.663V14.3424H127.403V16.5474C127.403 16.7934 127.454 16.9644 127.556 17.0604C127.664 17.1504 127.847 17.1954 128.105 17.1954H128.618V18.0054H127.88ZM130.187 12.6954C130.007 12.6954 129.857 12.6414 129.737 12.5334C129.623 12.4194 129.566 12.2784 129.566 12.1104C129.566 11.9424 129.623 11.8044 129.737 11.6964C129.857 11.5824 130.007 11.5254 130.187 11.5254C130.367 11.5254 130.514 11.5824 130.628 11.6964C130.748 11.8044 130.808 11.9424 130.808 12.1104C130.808 12.2784 130.748 12.4194 130.628 12.5334C130.514 12.6414 130.367 12.6954 130.187 12.6954ZM129.71 18.0054V13.5414H130.664V18.0054H129.71ZM134.011 18.1134C133.585 18.1134 133.201 18.0174 132.859 17.8254C132.523 17.6274 132.256 17.3544 132.058 17.0064C131.86 16.6524 131.761 16.2414 131.761 15.7734C131.761 15.3054 131.86 14.8974 132.058 14.5494C132.262 14.1954 132.535 13.9224 132.877 13.7304C133.219 13.5324 133.6 13.4334 134.02 13.4334C134.446 13.4334 134.827 13.5324 135.163 13.7304C135.505 13.9224 135.775 14.1954 135.973 14.5494C136.177 14.8974 136.279 15.3054 136.279 15.7734C136.279 16.2414 136.177 16.6524 135.973 17.0064C135.775 17.3544 135.505 17.6274 135.163 17.8254C134.821 18.0174 134.437 18.1134 134.011 18.1134ZM134.011 17.2944C134.239 17.2944 134.449 17.2374 134.641 17.1234C134.839 17.0094 134.998 16.8414 135.118 16.6194C135.238 16.3914 135.298 16.1094 135.298 15.7734C135.298 15.4374 135.238 15.1584 135.118 14.9364C135.004 14.7084 134.848 14.5374 134.65 14.4234C134.458 14.3094 134.248 14.2524 134.02 14.2524C133.792 14.2524 133.579 14.3094 133.381 14.4234C133.189 14.5374 133.033 14.7084 132.913 14.9364C132.793 15.1584 132.733 15.4374 132.733 15.7734C132.733 16.1094 132.793 16.3914 132.913 16.6194C133.033 16.8414 133.189 17.0094 133.381 17.1234C133.573 17.2374 133.783 17.2944 134.011 17.2944ZM137.311 18.0054V13.5414H138.157L138.229 14.3244C138.367 14.0484 138.568 13.8324 138.832 13.6764C139.102 13.5144 139.411 13.4334 139.759 13.4334C140.299 13.4334 140.722 13.6014 141.028 13.9374C141.34 14.2734 141.496 14.7744 141.496 15.4404V18.0054H140.551V15.5394C140.551 14.6754 140.197 14.2434 139.489 14.2434C139.135 14.2434 138.841 14.3694 138.607 14.6214C138.379 14.8734 138.265 15.2334 138.265 15.7014V18.0054H137.311Z" fill="#3B3E43"/>
</g>
<defs>
<filter id="filter0_d" x="-6.23099" y="-6.22562" width="255.072" height="174.462" filterUnits="userSpaceOnUse" color-interpolation-filters="sRGB">
<feFlood flood-opacity="0" result="BackgroundImageFix"/>
<feColorMatrix in="SourceAlpha" type="matrix" values="0 0 0 0 0 0 0 0 0 0 0 0 0 0 0 0 0 0 127 0" result="hardAlpha"/>
<feOffset/>
<feGaussianBlur stdDeviation="2.92067"/>
<feColorMatrix type="matrix" values="0 0 0 0 0.90639 0 0 0 0 0.925996 0 0 0 0 0.938601 0 0 0 0.1 0"/>
<feBlend mode="normal" in2="BackgroundImageFix" result="effect1_dropShadow"/>
<feBlend mode="normal" in="SourceGraphic" in2="effect1_dropShadow" result="shape"/>
</filter>
<filter id="filter1_d" x="73.5108" y="52.3321" width="51.109" height="31.2404" filterUnits="userSpaceOnUse" color-interpolation-filters="sRGB">
<feFlood flood-opacity="0" result="BackgroundImageFix"/>
<feColorMatrix in="SourceAlpha" type="matrix" values="0 0 0 0 0 0 0 0 0 0 0 0 0 0 0 0 0 0 127 0" result="hardAlpha"/>
<feOffset dy="1.94712"/>
<feGaussianBlur stdDeviation="3.11538"/>
<feColorMatrix type="matrix" values="0 0 0 0 0.793703 0 0 0 0 0.830436 0 0 0 0 0.903901 0 0 0 0.552065 0"/>
<feBlend mode="normal" in2="BackgroundImageFix" result="effect1_dropShadow"/>
<feBlend mode="normal" in="SourceGraphic" in2="effect1_dropShadow" result="shape"/>
</filter>
<clipPath id="clip0">
<rect width="242.611" height="162" fill="white" transform="translate(-0.000244141 0.00537109)"/>
</clipPath>
<clipPath id="clip1">
<rect width="218.856" height="93.0721" fill="white" transform="translate(12.0719 40.1157)"/>
</clipPath>
<clipPath id="clip2">
<rect width="38" height="18" fill="white" transform="translate(79.9996 57.0054)"/>
</clipPath>
<clipPath id="clip3">
<rect width="25.3125" height="5.45192" fill="white" transform="translate(108.649 144.871)"/>
</clipPath>
</defs>
</svg>
